<svg id="Layer_1" data-name="Layer 1" xmlns="http://www.w3.org/2000/svg" viewBox="0 0 512 512">
    <defs>
        <style>.cls-1{fill:#28a5de;}.cls-2{fill:#fff;}</style>
    </defs>
    <title>image</title>
    <rect class="cls-1" width="512" height="512"/>
    <path class="cls-2" d="M225.83,346.33l160-168.52h0A12.94,12.94,0,0,0,373,166.58L212.85,335.37Z"/>
    <polygon class="cls-2" points="207.59 340.96 203.3 345.43 196 364.5 216.01 356.73 221.57 351.92 207.59 340.96"/>
    <path class="cls-2"
          d="M317.44,291.51c7.91-20.84,37.6-28.91,66.31-18a74.92,74.92,0,0,1,15.5,8A67.29,67.29,0,0,0,406.18,252c0-21.28-10.41-41-28.09-57l-146,153.69A230.42,230.42,0,0,0,256,349.95c28.23,0,54.63-5.08,77.19-13.91C318.64,323.39,311.85,306.23,317.44,291.51Z"/>
    <path class="cls-2"
          d="M256,154.13C173.1,154.13,105.87,198,105.87,252c0,40.27,37.29,74.85,90.57,89.89l156.45-164.7C326.74,162.82,292.94,154.13,256,154.13Zm-78.65,36a22,22,0,1,1-22,22A22,22,0,0,1,177.38,190.08Zm-52,70a22,22,0,1,1,22,22A22,22,0,0,1,125.38,260.08Zm66,46.91c-11.87,9.39-25.9,11.43-31.33,4.55s-.23-20.06,11.64-29.44,25.9-11.43,31.33-4.55S203.28,297.61,191.41,307Zm38-95.91a22,22,0,1,1,22-22A22,22,0,0,1,229.38,211.08Zm60-3a22,22,0,1,1,22-22A22,22,0,0,1,289.38,208.08Z"/>
</svg>
