<svg id="Layer_1" data-name="Layer 1" xmlns="http://www.w3.org/2000/svg" viewBox="0 0 512 512">
    <defs>
        <style>.cls-1{fill:#f7931e;}.cls-2{fill:#fff;}</style>
    </defs>
    <title>zip</title>
    <g id="HxdDbj.tif">
        <path class="cls-1"
              d="M0,512V.1H511.83V512Zm156.9-255.9c0,42.33.06,84.65-.08,127,0,4.64,1.19,6.37,6.16,6.36q93.48-.23,187,0c4.47,0,6.15-1.16,6.14-5.86q-.18-100.73,0-201.47c0-4.13-1.48-5.82-5.46-6.73q-17-3.89-33.84-8.64a7.88,7.88,0,0,1-4.63-4.66c-3.21-11.54-6-23.19-8.88-34.82-.66-2.71-1.71-4.53-4.93-4.47-6.5.13-13,.08-19.5,0-2.92,0-4.28,1.17-4.19,4.18.11,3.83,0,7.66,0,11.5q0,74.74,0,149.47c0,6.67,0,6.67-6.87,6.67l-22.5,0c-7.31,0-7.32,0-7.32-7.3q0-79,.08-158c0-4.93-1.38-6.69-6.51-6.63-22.49.24-45,.1-67.49.11-7.12,0-7.15,0-7.15,7.32Q156.94,193.11,156.95,256.1Zm115.38-17.45c0-9.62.67-8-8.37-8.15a16.68,16.68,0,0,1-4-.12,3.93,3.93,0,0,1-2.49-1.88c-2.63-7.27.32-11.51,7.91-11.57a3.86,3.86,0,0,1,.5,0c4.9.6,6.73-1.27,6.55-6.44-.36-10-.07-10-10.54-10.52-1.47-.07-4.06-.85-4.15-1.56-.44-3.43-.85-7.14.13-10.31.35-1.15,4.59-1.47,7.07-1.53,7.36-.2,7.36-.08,7.37-7.35q0-.75,0-1.5c0-7.79,0-7.79-8-7.81-7,0-6.68,0-7.1-7.11-.29-5,1.09-7.23,6.32-6.4a19.88,19.88,0,0,0,5.48,0c1-.13,2.81-.81,2.84-1.32a119.52,119.52,0,0,0,.05-13.41c0-.63-2-1.51-3.17-1.66-3.57-.46-8.53.67-10.41-1.28s-.51-6.93-1.2-10.46c-.26-1.36-2.43-3.48-3.48-3.34-4.29.57-9.28-2.67-12.85,2.06a.85.85,0,0,0-.06.49c.15,4.3-.63,9,.91,12.72.62,1.51,6.32.92,9.72,1.27.66.07,1.48-.19,2,.11.87.54,2,1.28,2.22,2.14,2.24,8.22,0,11.15-8.23,11.2a3.57,3.57,0,0,1-.5,0c-4.77-.65-6.38,1.34-6.25,6.18.28,10.2,0,10.36,10.35,10.34,3.74,0,4.95,1.18,4.84,4.9-.29,9.7.9,8.59-8.52,8.68a14.73,14.73,0,0,1-1.5,0c-3.91-.36-5.15,1.41-5.14,5.28,0,11.07-.13,11.17,10.8,11.6,3.2.13,4.31,1.22,4.37,4.46.14,8.71.28,8.71-8.46,8.82a3.86,3.86,0,0,1-.5,0c-4.73-.56-6.42,1.37-6.22,6.24.46,11.58-1.49,10.59,10.28,10.7,1.42,0,4,.43,4.06.93a37.09,37.09,0,0,1,.34,10.79c-.14.88-3.87,1.63-6,1.69-9.37.28-8.55-1.06-8.62,8.61,0,.17,0,.33,0,.5,0,7.51,0,7.51,7.3,7.54,7.76,0,7.76,0,7.72,7.89a11.78,11.78,0,0,0,0,1.5c.41,3.32-1.12,4.24-4.32,4.29-11,.19-11,.3-10.7,11.5a7.26,7.26,0,0,0,0,1.5c1.64,6.85,7.05,2.59,10.66,3.41,2.48.56,6,1.07,6-3.61,0-3.46-1-8.38.85-10,2.13-1.91,6.88-.72,10.39-1.37,1.37-.25,3.48-1.81,3.54-2.86.23-4.27.73-9-.87-12.66-.65-1.51-6.36-.83-9.77-1.14-.33,0-.81.13-1,0-1.09-1.1-2.9-2.17-3-3.42-1.1-9.86-1-9.87,9-10,.67,0,1.33,0,2,0,2.6,0,4.11-1,3.93-3.88C272.24,241.65,272.31,240.15,272.33,238.65ZM349.49,172l-1.17.7-41.45-42.56c2.37,9.47,5,19.38,7.27,29.35.75,3.24,2.52,4.66,5.6,5.37,7,1.59,13.84,3.46,20.76,5.16C343.48,170.77,346.49,171.37,349.49,172Z"/>
        <path class="cls-2"
              d="M157.94,257.1q0-63,0-126c0-7.29,0-7.31,7.15-7.32,22.5,0,45,.14,67.49-.11,5.14-.06,6.53,1.7,6.51,6.63q-.2,79-.08,158c0,7.3,0,7.3,7.32,7.3l22.5,0c6.86,0,6.87,0,6.87-6.67q0-74.74,0-149.47c0-3.83.09-7.67,0-11.5-.09-3,1.27-4.21,4.19-4.18,6.5.07,13,.11,19.5,0,3.23-.06,4.27,1.76,4.93,4.47,2.86,11.63,5.66,23.29,8.88,34.82a7.88,7.88,0,0,0,4.63,4.66q16.8,4.74,33.84,8.64c4,.91,5.46,2.6,5.46,6.73q-.15,100.73,0,201.47c0,4.7-1.67,5.87-6.14,5.86q-93.48-.18-187,0c-5,0-6.17-1.72-6.16-6.36C158,341.75,157.95,299.43,157.94,257.1Zm85.35,72.63c0,8.31.06,16.63,0,24.94,0,3.52,1.45,5.26,5,5.23q9.23-.07,18.45,0c3.62,0,5-1.77,5-5.27q-.09-24.69,0-49.38c0-3-1-4.16-4-4.1q-10.22.2-20.45,0c-3.07-.06-4.06,1.17-4,4.14C243.38,313.43,243.29,321.58,243.3,329.73Z"/>
        <path class="cls-2"
              d="M273.32,239.65c0,1.5-.08,3,0,4.5C273.51,247,272,248,269.4,248c-.67,0-1.33,0-2,0-10,.15-10.06.17-9,10,.14,1.24,2,2.32,3,3.42.17.17.65,0,1,0,3.41.31,9.12-.37,9.77,1.14,1.59,3.68,1.09,8.39.87,12.66-.06,1.05-2.17,2.6-3.54,2.86-3.52.65-8.26-.54-10.39,1.37-1.82,1.63-.86,6.55-.85,10,0,4.68-3.47,4.17-6,3.61-3.61-.81-9,3.44-10.66-3.41a7.26,7.26,0,0,1,0-1.5c-.25-11.2-.25-11.31,10.7-11.5,3.2-.05,4.73-1,4.32-4.29a11.78,11.78,0,0,1,0-1.5c0-7.86,0-7.86-7.72-7.89-7.29,0-7.29,0-7.3-7.54,0-.17,0-.33,0-.5.06-9.68-.75-8.34,8.62-8.61,2.1-.06,5.83-.81,6-1.69a37.09,37.09,0,0,0-.34-10.79c-.07-.5-2.64-.91-4.06-.93-11.77-.11-9.81.88-10.28-10.7-.2-4.88,1.49-6.8,6.22-6.24a3.86,3.86,0,0,0,.5,0c8.73-.11,8.6-.11,8.46-8.82-.05-3.23-1.17-4.33-4.37-4.46-10.93-.43-10.78-.53-10.8-11.6,0-3.87,1.23-5.64,5.14-5.28a14.73,14.73,0,0,0,1.5,0c9.42-.09,8.23,1,8.52-8.68.11-3.72-1.1-4.91-4.84-4.9-10.31,0-10.07-.14-10.35-10.34-.13-4.84,1.48-6.83,6.25-6.18a3.57,3.57,0,0,0,.5,0c8.26-.05,10.47-3,8.23-11.2-.24-.86-1.35-1.6-2.22-2.14-.49-.3-1.3,0-2-.11-3.39-.35-9.09.24-9.72-1.27-1.54-3.73-.76-8.42-.91-12.72a.85.85,0,0,1,.06-.49c3.57-4.73,8.56-1.49,12.85-2.06,1-.14,3.22,2,3.48,3.34.69,3.53-.71,8.48,1.2,10.46s6.83.81,10.41,1.28c1.16.15,3.13,1,3.17,1.66a119.52,119.52,0,0,1-.05,13.41c0,.51-1.81,1.2-2.84,1.32a19.88,19.88,0,0,1-5.48,0c-5.24-.83-6.61,1.41-6.32,6.4.41,7.08.1,7.09,7.1,7.11,8,0,8,0,8,7.81q0,.75,0,1.5c0,7.28,0,7.15-7.37,7.35-2.48.07-6.72.38-7.07,1.53-1,3.18-.57,6.89-.13,10.31.09.71,2.68,1.49,4.15,1.56,10.46.52,10.17.47,10.54,10.52.19,5.18-1.65,7-6.55,6.44a3.86,3.86,0,0,0-.5,0c-7.59.06-10.54,4.3-7.91,11.57a3.93,3.93,0,0,0,2.49,1.88,16.68,16.68,0,0,0,4,.12C274,231.61,273.28,230,273.32,239.65Z"/>
        <path class="cls-2"
              d="M350.49,173c-3-.66-6-1.26-9-2-6.93-1.7-13.81-3.57-20.76-5.16-3.08-.71-4.85-2.12-5.6-5.37-2.31-10-4.9-19.88-7.27-29.35l41.45,42.56Z"/>
        <path class="cls-1"
              d="M242.3,328.73c0-8.15.08-16.29,0-24.44,0-3,.94-4.2,4-4.14q10.22.21,20.45,0c3-.06,4.06,1.1,4,4.1q-.15,24.69,0,49.38c0,3.5-1.36,5.3-5,5.27q-9.23-.07-18.45,0c-3.58,0-5.06-1.71-5-5.23C242.35,345.35,242.3,337,242.3,328.73Zm14.21-25.07c-12.05.19-10.77-1.76-10.75,10.41,0,12.81-1.61,11.13,11,11.15,12,0,10.49,1.36,10.47-10.71C267.26,301.87,268.85,303.86,256.51,303.66Z"/>
        <path class="cls-2"
              d="M257.51,304.66c12.35.2,10.75-1.79,10.77,10.86,0,12.06,1.56,10.73-10.47,10.71-12.65,0-11,1.65-11-11.15C246.74,302.89,245.45,304.85,257.51,304.66Z"/>
    </g>
</svg>
