<?xml version="1.0" encoding="utf-8"?>
<svg version="1.1" id="Capa_1" xmlns="http://www.w3.org/2000/svg" xmlns:xlink="http://www.w3.org/1999/xlink"
	 viewBox="0 0 1000 1000" style="enable-background:new 0 0 1000 1000;" xml:space="preserve">
    <style type="text/css">.st0{fill:#d9534f;}</style>

    <g>
        <title>Info</title>
        <rect fill="none" id="canvas_background" height="402" width="582" y="-1" x="-1"/>
    </g>
    <g>
        <title>Layer 1</title>
        <g stroke="null" transform="rotate(180 500.4999694824218,508.01538085937506) " id="svg_1">
            <path stroke="null" id="svg_2" d="m500.499949,1000.030846c-275.933458,0 -499.499983,-220.216584 -499.499983,-492.015432s223.566525,-492.015432 499.499983,-492.015432s499.499983,220.216584 499.499983,492.015432s-223.566525,492.015432 -499.499983,492.015432zm-8.056451,-145.81909c52.366934,0 95.67036,-41.662597 95.67036,-94.236827s-43.303426,-94.236827 -95.67036,-94.236827s-95.67036,42.654564 -95.67036,94.236827s42.29637,94.236827 95.67036,94.236827zm188.31955,-661.64172c0,-9.919666 -16.112903,-16.863432 -32.225805,-16.863432l-269.89112,0c-16.112903,0 -26.183467,6.943766 -26.183467,16.863432l0,32.734898c0,9.919666 10.070564,17.855399 26.183467,17.855399l33.232862,0c16.112903,0 29.204636,8.927699 29.204636,19.839332l0,251.959515c0,9.919666 -13.091733,19.839332 -29.204636,19.839332l-23.162298,0c-15.105846,0 -26.183467,6.943766 -26.183467,17.855399l0,43.64653c0,9.919666 10.070564,17.855399 26.183467,17.855399l174.22076,0c15.105846,0 25.17641,-7.935733 25.17641,-17.855399l0,-333.300776c0,-10.911633 16.112903,-20.831299 32.225805,-20.831299l28.19758,0c16.112903,0 33.232862,-6.943766 33.232862,-17.855399l-1.007056,-31.742931l0,0z" class="st0"/>
        </g>
    </g>
</svg>
