<?xml version="1.0" encoding="utf-8"?>
<!-- Generator: Adobe Illustrator 18.1.1, SVG Export Plug-In . SVG Version: 6.00 Build 0)  -->
<svg version="1.1" id="Capa_1" xmlns="http://www.w3.org/2000/svg" xmlns:xlink="http://www.w3.org/1999/xlink"  x="0px" y="0px"
	 viewBox="-30 31.5 438.5 438.5" enable-background="new -30 31.5 438.5 438.5" xml:space="preserve">
<g>
	<g>
		<path fill="#D7D7D7" d="M387.7,107.1c-1.7-1.7-3.9-2.6-6.6-2.6h-88.2l-20-47.7c-2.9-7-8-13-15.4-18c-7.4-4.9-14.9-7.4-22.6-7.4
			h-91.4c-7.6,0-15.1,2.5-22.6,7.4c-7.4,4.9-12.6,10.9-15.4,18l-20,47.7H-2.6c-2.7,0-4.9,0.9-6.6,2.6c-1.7,1.7-2.6,3.9-2.6,6.6V132
			c0,2.7,0.9,4.9,2.6,6.6c1.7,1.7,3.9,2.6,6.6,2.6h27.4v271.8c0,15.8,4.5,29.3,13.4,40.4c8.9,11.1,19.7,16.7,32.3,16.7H308
			c12.6,0,23.3-5.8,32.3-17.3c8.9-11.5,13.4-25.2,13.4-41V141.1h27.4c2.7,0,4.9-0.9,6.6-2.6c1.7-1.7,2.6-3.9,2.6-6.6v-18.3
			C390.3,111,389.4,108.8,387.7,107.1z M139.3,71.1c1.3-1.7,2.9-2.8,4.9-3.1h90.5c1.9,0.4,3.5,1.4,4.9,3.1l13.7,33.4H125.3
			L139.3,71.1z M317.2,411.8c0,4.2-0.7,8-2,11.6c-1.3,3.5-2.7,6.1-4.1,7.7c-1.4,1.6-2.4,2.4-3,2.4H70.5c-0.6,0-1.6-0.8-3-2.4
			c-1.4-1.6-2.8-4.2-4.1-7.7c-1.3-3.5-2-7.4-2-11.6V141.1h255.8L317.2,411.8L317.2,411.8z"/>
		<path fill="#D7D7D7" d="M107,378.6h18.3c2.7,0,4.9-0.9,6.6-2.6c1.7-1.7,2.6-3.9,2.6-6.6V205.1c0-2.7-0.9-4.9-2.6-6.6
			c-1.7-1.7-3.9-2.6-6.6-2.6H107c-2.7,0-4.9,0.9-6.6,2.6c-1.7,1.7-2.6,3.9-2.6,6.6v164.5c0,2.7,0.9,4.9,2.6,6.6
			C102.2,377.8,104.4,378.6,107,378.6z"/>
		<path fill="#D7D7D7" d="M180.1,378.6h18.3c2.7,0,4.9-0.9,6.6-2.6c1.7-1.7,2.6-3.9,2.6-6.6V205.1c0-2.7-0.9-4.9-2.6-6.6
			c-1.7-1.7-3.9-2.6-6.6-2.6h-18.3c-2.7,0-4.9,0.9-6.6,2.6c-1.7,1.7-2.6,3.9-2.6,6.6v164.5c0,2.7,0.9,4.9,2.6,6.6
			C175.3,377.8,177.5,378.6,180.1,378.6z"/>
		<path fill="#D7D7D7" d="M253.2,378.6h18.3c2.7,0,4.9-0.9,6.6-2.6c1.7-1.7,2.6-3.9,2.6-6.6V205.1c0-2.7-0.9-4.9-2.6-6.6
			c-1.7-1.7-3.9-2.6-6.6-2.6h-18.3c-2.7,0-4.9,0.9-6.6,2.6c-1.7,1.7-2.6,3.9-2.6,6.6v164.5c0,2.7,0.9,4.9,2.6,6.6
			C248.4,377.8,250.5,378.6,253.2,378.6z"/>
	</g>
</g>
</svg>
