<?xml version="1.0" encoding="utf-8"?>
<!-- Generator: Adobe Illustrator 18.1.1, SVG Export Plug-In . SVG Version: 6.00 Build 0)  -->
<svg version="1.1" id="Capa_1" xmlns="http://www.w3.org/2000/svg" xmlns:xlink="http://www.w3.org/1999/xlink"  x="0px" y="0px"
	 viewBox="-16 18 466 466" enable-background="new -16 18 466 466" xml:space="preserve">
<g>
	<path fill="#D7D7D7" d="M-16,360.7c0,22.8,8.1,42.2,24.3,58l42,41.7c15.8,15.8,35.1,23.7,58,23.7c23,0,42.4-8.1,58.2-24.3
		l58.8-59.1c15.8-15.8,23.7-35.1,23.7-58c0-23.4-8.4-43.3-25.1-59.7l25.1-25.1c16.4,16.8,36.2,25.1,59.4,25.1c22.8,0,42.3-8,58.2-24
		l59.4-59.4c16-16,24-35.4,24-58.2c0-22.8-8.1-42.2-24.3-58l-42-41.7c-15.8-15.8-35.1-23.7-58-23.7c-23,0-42.4,8.1-58.2,24.3
		l-58.8,59.1c-15.8,15.8-23.7,35.1-23.7,58c0,23.4,8.4,43.3,25.1,59.7L185,244.2c-16.4-16.8-36.2-25.1-59.4-25.1
		c-22.8,0-42.3,8-58.2,24L8,302.4C-8,318.4-16,337.8-16,360.7z M239.5,159.4c0-7.6,2.7-14.1,8-19.4l58.8-59.1c5.3-5.3,11.8-8,19.4-8
		c7.4,0,13.9,2.6,19.4,7.7l42,41.7c5.3,5.3,8,11.7,8,19.1c0,7.6-2.7,14.1-8,19.4l-59.4,59.4c-5.1,5.1-11.6,7.7-19.4,7.7
		c-8,0-14.8-2.9-20.6-8.8c0.6-0.6,2.4-2.3,5.4-5.3c3-3,5.1-5,6.1-6.1c1-1.1,2.5-3,4.3-5.4c1.8-2.5,3-4.9,3.7-7.3c0.7-2.4,1-5,1-7.9
		c0-7.6-2.7-14.1-8-19.4c-5.3-5.3-11.8-8-19.4-8c-2.9,0-5.5,0.3-7.9,1c-2.4,0.7-4.8,1.9-7.3,3.7c-2.5,1.8-4.3,3.2-5.4,4.3
		c-1.1,1-3.2,3.1-6.1,6.1c-2.9,3-4.7,4.9-5.3,5.4C242.7,174.3,239.5,167.4,239.5,159.4z M38.8,360.7c0-7.6,2.7-14.1,8-19.4
		l59.4-59.4c5.3-5.3,11.8-8,19.4-8c8,0,14.8,3,20.6,9.1c-0.6,0.6-2.4,2.3-5.4,5.3c-3,3-5.1,5-6.1,6.1c-1.1,1.1-2.5,3-4.3,5.4
		c-1.8,2.5-3,4.9-3.7,7.3c-0.7,2.4-1,5-1,7.9c0,7.6,2.7,14.1,8,19.4c5.3,5.3,11.8,8,19.4,8c2.9,0,5.5-0.3,7.9-1
		c2.4-0.7,4.8-1.9,7.3-3.7c2.5-1.8,4.3-3.2,5.4-4.3c1.1-1,3.2-3.1,6.1-6.1c2.9-3,4.7-4.9,5.3-5.4c6.3,5.9,9.4,12.8,9.4,20.8
		c0,7.6-2.7,14.1-8,19.4l-58.8,59.1c-5.1,5.1-11.6,7.7-19.4,7.7c-7.6,0-14.1-2.5-19.4-7.4l-42-41.7
		C41.5,374.5,38.8,368.1,38.8,360.7z"/>
</g>
</svg>
