<?xml version="1.0" encoding="utf-8"?>
<!-- Generator: Adobe Illustrator 18.1.1, SVG Export Plug-In . SVG Version: 6.00 Build 0)  -->
<svg version="1.1" id="Capa_1" xmlns="http://www.w3.org/2000/svg" xmlns:xlink="http://www.w3.org/1999/xlink"  x="0px" y="0px"
	 viewBox="24 -24.2 548.2 548.2" enable-background="new 24 -24.2 548.2 548.2" xml:space="preserve">
<g>
	<g>
		<path fill="#D7D7D7" d="M558.8,44.1c-8.9-8.9-19.7-13.4-32.3-13.4H69.7c-12.6,0-23.3,4.5-32.3,13.4C28.5,53,24,63.8,24,76.3v347.2
			c0,12.6,4.5,23.3,13.4,32.3c9,8.9,19.7,13.4,32.3,13.4h456.8c12.6,0,23.3-4.5,32.3-13.4c8.9-8.9,13.4-19.7,13.4-32.3V76.3
			C572.2,63.8,567.7,53,558.8,44.1z M535.6,423.5c0,2.5-0.9,4.6-2.7,6.4c-1.8,1.8-4,2.7-6.4,2.7H69.7c-2.5,0-4.6-0.9-6.4-2.7
			c-1.8-1.8-2.7-3.9-2.7-6.4V76.3c0-2.5,0.9-4.6,2.7-6.4c1.8-1.8,4-2.7,6.4-2.7h456.8c2.5,0,4.6,0.9,6.4,2.7
			c1.8,1.8,2.7,3.9,2.7,6.4L535.6,423.5L535.6,423.5z"/>
		<path fill="#D7D7D7" d="M151.9,213.4c15.2,0,28.2-5.3,38.8-16c10.7-10.7,16-23.6,16-38.8c0-15.2-5.3-28.2-16-38.8
			c-10.7-10.7-23.6-16-38.8-16c-15.2,0-28.2,5.3-38.8,16c-10.7,10.7-16,23.6-16,38.8c0,15.2,5.3,28.2,16,38.8
			C123.7,208,136.7,213.4,151.9,213.4z"/>
		<polygon fill="#D7D7D7" points="234.1,295.6 188.5,249.9 97.1,341.3 97.1,396.1 499.1,396.1 499.1,268.2 380.3,149.4 		"/>
	</g>
</g>
</svg>
