<?xml version="1.0" encoding="utf-8"?>
<!-- Generator: Adobe Illustrator 19.2.1, SVG Export Plug-In . SVG Version: 6.00 Build 0)  -->
<svg version="1.1" id="Layer_1" xmlns="http://www.w3.org/2000/svg" xmlns:xlink="http://www.w3.org/1999/xlink" x="0px" y="0px"
	 viewBox="0 0 560 560" style="enable-background:new 0 0 560 560;" xml:space="preserve">
<style type="text/css">
	.st0{fill:#0092d9;}
</style>
<image style="display:none;overflow:visible;enable-background:new    ;" width="474" height="480" xlink:href="../../../icons/customize/D8738D296AF49648.jpeg"  transform="matrix(1.22 0 0 1.2199 -33.8888 -16.7226)">
</image>
<g>
	<g>
		<path class="st0" d="M475.5,226.5V271c3.5,3.5,9.2,3.5,12.7-0.1l64-63.9c3.5-3.5,3.5-9.3,0-12.7l-63.9-64
			c-3.5-3.5-9.2-3.3-12.7,0.1v37.4H333.4c-0.2,0-0.7-0.1-1.1,0c-2.7-0.5-5.6,0-7.7,2.1L157.6,336.5h-139c-3.6,0-6.7,4.7-6.7,9.7
			v40.7c0,4.9,3,8.4,6.7,8.4h160.6c3.7,0,6.9-1.9,8.3-5.1l164.2-163.6L475.5,226.5L475.5,226.5z"/>
		<path class="st0" d="M18.6,226.5h139.1l45.2,45.2l41.1-41.5l-56.6-56.7c-1.4-3.2-4.7-5.8-8.3-5.8H18.6c-3.6,0-6.7,4.1-6.7,9v40.7
			C11.9,222.4,14.9,226.5,18.6,226.5z"/>
		<path class="st0" d="M488.2,292.6c-3.5-3.5-9.3-3.2-12.7,0.2v45H351.6l-46-46.2l-41.1,41.5l60.3,60.3c2.1,2.1,4.9,3.2,7.7,2.8
			c0.2,0,0.7,0.5,1.1,0.5h142.2v36.9c3.5,3.5,9.3,3.3,12.7-0.1l63.9-64c3.5-3.5,3.5-9.3,0-12.7L488.2,292.6z"/>
	</g>
	<polygon class="st0" points="295.9,282.1 253.6,239.7 212.4,281.3 254.8,323.5 	"/>
</g>
</svg>
