<svg id="Layer_1" data-name="Layer 1" xmlns="http://www.w3.org/2000/svg" viewBox="0 0 512 512">
    <defs>
        <style>.cls-1{fill:#f26623;}.cls-2{fill:#fff;}</style>
    </defs>
    <title>sound</title>
    <g id="Pvu3M7.tif">
        <path class="cls-1"
              d="M0,512V.1h511.8V512ZM270.86,256q0-43.48,0-87c0-5-.85-9.45-5.91-11.64-4.76-2.06-8.56,0-12.22,3.17q-27.33,23.78-54.93,47.26a13.54,13.54,0,0,1-7.94,2.92c-16.49.26-33,.1-49.48.15-8.13,0-11.73,3.52-11.75,11.45q-.06,33.24,0,66.47c0,8.07,3.44,11.43,11.65,11.45,16,0,32,.1,48-.06a12.36,12.36,0,0,1,9,3.25q27.66,24.17,55.61,48a16,16,0,0,0,6.33,3.69c6.9,1.56,11.63-3.29,11.64-11.69Q270.9,299.73,270.86,256Zm60-9.3c0,30.17-5.77,49.28-17.31,66.27-5.12,7.55-5,12.83.5,16.47s10.56,1.68,15.52-6c22.62-34.79,26.92-71.81,12.23-110.56-3.61-9.53-9.46-18.28-14.86-27a9.23,9.23,0,0,0-13.51-2.76c-4.47,3.2-5.29,8.62-2,13.71.72,1.12,1.54,2.18,2.28,3.28C325.05,217,330.77,235.7,330.87,246.7Zm-16.6,10.48a83.39,83.39,0,0,0-12.06-43.72c-3.73-6.19-9.06-7.91-14.18-4.75-4.84,3-5.75,8.61-2.4,14.47,12.53,21.94,12.55,44,.34,66-3.48,6.29-2.48,11.72,2.76,14.71,5,2.83,10.19,1,13.75-5A82.33,82.33,0,0,0,314.27,257.18Z"/>
        <path class="cls-2"
              d="M271.86,257q0,43.73,0,87.46c0,8.4-4.75,13.25-11.64,11.69a16,16,0,0,1-6.33-3.69q-27.9-23.89-55.61-48a12.36,12.36,0,0,0-9-3.25c-16,.16-32,.09-48,.06-8.2,0-11.63-3.38-11.65-11.45q-.05-33.24,0-66.47c0-7.93,3.62-11.43,11.75-11.45,16.49,0,33,.12,49.48-.15a13.54,13.54,0,0,0,7.94-2.92q27.65-23.4,54.93-47.26c3.66-3.19,7.46-5.23,12.22-3.17,5.06,2.18,5.91,6.67,5.91,11.64Q271.8,213.52,271.86,257Z"/>
        <path class="cls-2"
              d="M331.87,247.7c-.1-11-5.82-29.66-17.18-46.57-.74-1.11-1.56-2.16-2.28-3.28-3.24-5.09-2.42-10.51,2-13.71A9.23,9.23,0,0,1,328,186.9c5.39,8.75,11.25,17.5,14.86,27,14.68,38.76,10.39,75.78-12.23,110.56-5,7.64-10.18,9.51-15.52,6s-5.62-8.92-.5-16.47C326.1,297,331.91,277.87,331.87,247.7Z"/>
        <path class="cls-2"
              d="M315.27,258.18A82.33,82.33,0,0,1,303.46,300c-3.56,5.94-8.79,7.79-13.75,5-5.24-3-6.24-8.42-2.76-14.71,12.21-22.07,12.19-44.1-.34-66-3.35-5.86-2.44-11.47,2.4-14.47,5.12-3.17,10.45-1.45,14.18,4.75A83.39,83.39,0,0,1,315.27,258.18Z"/>
    </g>
</svg>
