<svg id="Layer_1" data-name="Layer 1" xmlns="http://www.w3.org/2000/svg" viewBox="0 0 512 512">
    <defs>
        <style>.cls-1{fill:#3269b3;}.cls-2{fill:#fafdfe;}.cls-3{fill:#326ab3;}</style>
    </defs>
    <title>web</title>
    <path class="cls-1"
          d="M256,512q-125.72,0-251.44.09c-3.6,0-4.69-.57-4.69-4.5Q.08,255.89-.11,4.21C-.11.48.8-.09,4.29-.09Q256,.06,507.67-.08c3.38,0,4.45.41,4.44,4.25q-.2,251.94,0,503.88c0,3.51-.81,4-4.14,4Q382,511.92,256,512ZM394.29,256.84c-.24-75.76-61.13-137.18-136.21-137.29-79.4-.12-138.65,64.2-138.16,137.25.5,76.28,61.42,136.83,138.13,136.78C332.73,393.53,394.53,331.52,394.29,256.84Z"/>
    <path class="cls-2"
          d="M394.29,256.84c.24,74.68-61.56,136.69-136.24,136.74-76.71,0-137.63-60.5-138.13-136.78-.48-73,58.76-137.37,138.16-137.25C333.16,119.66,394.05,181.08,394.29,256.84ZM192,260.28c1.68.15,1.94,1.48,2.37,2.45a50.57,50.57,0,0,0,15.17,19.53c7.61,5.92,15.86,10.87,26.09,10.82,10.5,0,21,.1,31.49-.08,3.28-.06,4.23,1,4.25,4.25,0,6-2,11.45-2.88,17.19-.62,4.24-2.74,8.25-2,12.71,2.19,12.91,5.59,25.31,14.67,35.38a50.45,50.45,0,0,1,3.74,5.31c7.73,11.21,7.85,11.45,20.06,5.43,4-2,9.05-4.58,8.73-9.85-.77-12.58,2.1-24.35,5.58-36.23,2-6.69,2.8-14.92-.08-20.57a38.48,38.48,0,0,0-17.14-16.91,57.78,57.78,0,0,0-23.71-5.39c-10.87,0-21.61-.39-32.17-3.2a35.26,35.26,0,0,0-6.89-1.14c-3.05-.18-6.67-.18-7.14-3.76-.59-4.59-3.54-9.53,1.49-13.92,4.36-3.81,9.49-4.27,14.72-5.18,3.77-.66,6.31-.12,7.88,3.81a52.21,52.21,0,0,0,4.72,8.22c.59.93.65,3,2.65,2,1.6-.83.92-2.16.49-3.48-1.12-3.46-3.66-6.73-3.19-10.41,2.17-17,3.35-34.32,16.34-47.61,1.73-1.77,3-4,4.63-5.88,1.39-1.63,1.52-2.87.1-4.74-11.46-15.21-24.29-29-39.59-40.49-1.24-.93-2.4-2.1-4-1.28-6.11,3.18-11.69.79-17.14-1.7a22.65,22.65,0,0,0-17.77-.79,184.78,184.78,0,0,1-26,7c-7.93,1.47-13.12,5.69-18.21,11.67-4.11,4.83-3.42,8-.22,12.32,1.58,2.14,2.51,2.59,4.59.76,1.63-1.43,3.09-3.34,6.06-2.28,6.12,2.17,11.55,4.61,13.28,11.86.68,2.84,1.27,5.32.31,8.19a90.15,90.15,0,0,0-3.59,13c-.85,5-3.66,10-1.3,15.09,5,10.79,8.22,22.12,10.75,33.69a11.46,11.46,0,0,0,4.84,7.48C193.76,268.67,191.73,264.65,192,260.28Zm186.27,36c10.07-23.52,10.26-47,5.22-71-.49-2.33-1.9-3.21-3.78-4.12-8.29-4-17-6.58-26-8.75a4.86,4.86,0,0,0-5.28,1.51c-5.34,5.49-10.74,10.93-16.27,16.23-2,1.9-2.38,3.92-2.65,6.57-.62,6.24,1.68,11.1,5.07,16.11,4.9,7.25,9.83,15,17.68,18.54,11,4.95,19.33,11.85,24.43,22.71A19.14,19.14,0,0,0,378.25,296.25ZM224.86,133.32c7.24,4.59,13.55,8.56,19.84,12.58a6,6,0,0,0,3.82.7c9-.53,17.95-1,26.92-1.51,1.48-.08,3,0,4.14-1.28,3.07-3.42,6.2-6.8,9.22-10.09C267.71,124.88,246.9,127.1,224.86,133.32Zm148.48,70.82.69-.77c-1.54-2.36-3-4.78-4.63-7.07-7.76-10.92-13.37-23.56-24.93-31.45-1.67-1.14-3.24-4.38-5-3.06-2.32,1.76-4.51,4.53-4.54,8a46.38,46.38,0,0,0,.63,6c.69,5.62,1.18,11.21.27,16.89-.87,5.44.66,7.22,6.09,8.35,2.42.5,3.85-1.1,5.24-2.3,4.14-3.58,8-4.21,12.88-1C364.16,200.27,368.88,202,373.33,204.14Z"/>
    <path class="cls-3"
          d="M192,260.28c-.25,4.37,1.78,8.39,2,13.28a11.46,11.46,0,0,1-4.84-7.48c-2.52-11.57-5.71-22.9-10.75-33.69-2.36-5.05.45-10.11,1.3-15.09a90.15,90.15,0,0,1,3.59-13c1-2.87.37-5.34-.31-8.19-1.74-7.26-7.16-9.69-13.28-11.86-3-1.05-4.43.85-6.06,2.28-2.08,1.83-3,1.37-4.59-.76-3.2-4.34-3.88-7.49.22-12.32,5.08-6,10.27-10.2,18.21-11.67a184.78,184.78,0,0,0,26-7,22.65,22.65,0,0,1,17.77.79c5.44,2.48,11,4.88,17.14,1.7,1.58-.82,2.74.35,4,1.28C257.7,170,270.53,183.84,282,199c1.41,1.87,1.29,3.11-.1,4.74-1.62,1.89-2.9,4.11-4.63,5.88-13,13.29-14.18,30.65-16.34,47.61-.47,3.68,2.06,6.94,3.19,10.41.43,1.32,1.1,2.65-.49,3.48-2,1-2.06-1.07-2.65-2a52.21,52.21,0,0,1-4.72-8.22c-1.57-3.93-4.11-4.47-7.88-3.81-5.23.91-10.36,1.37-14.72,5.18-5,4.39-2.08,9.33-1.49,13.92.46,3.58,4.08,3.58,7.14,3.76a35.26,35.26,0,0,1,6.89,1.14c10.56,2.81,21.3,3.16,32.17,3.2a57.78,57.78,0,0,1,23.71,5.39,38.48,38.48,0,0,1,17.14,16.91c2.87,5.65,2,13.88.08,20.57-3.48,11.89-6.36,23.66-5.58,36.23.32,5.27-4.78,7.9-8.73,9.85-12.2,6-12.33,5.78-20.06-5.43a50.45,50.45,0,0,0-3.74-5.31c-9.08-10.08-12.48-22.47-14.67-35.38-.76-4.46,1.36-8.47,2-12.71.83-5.74,2.92-11.24,2.88-17.19,0-3.29-1-4.31-4.25-4.25-10.5.18-21,0-31.49.08-10.22,0-18.48-4.9-26.09-10.82a50.57,50.57,0,0,1-15.17-19.53C193.92,261.76,193.67,260.43,192,260.28Z"/>
    <path class="cls-3"
          d="M378.25,296.25a19.14,19.14,0,0,1-1.54-2.18c-5.1-10.86-13.39-17.76-24.43-22.71-7.85-3.51-12.78-11.29-17.68-18.54-3.39-5-5.69-9.87-5.07-16.11.26-2.65.67-4.67,2.65-6.57,5.53-5.3,10.93-10.73,16.27-16.23a4.86,4.86,0,0,1,5.28-1.51c8.91,2.18,17.66,4.74,26,8.75,1.88.91,3.29,1.79,3.78,4.12C388.51,249.2,388.32,272.73,378.25,296.25Z"/>
    <path class="cls-3"
          d="M224.86,133.32c22-6.22,42.85-8.44,63.93.4-3,3.3-6.14,6.67-9.22,10.09-1.16,1.29-2.66,1.2-4.14,1.28-9,.5-17.95,1-26.92,1.51a6,6,0,0,1-3.82-.7C238.41,141.88,232.1,137.9,224.86,133.32Z"/>
    <path class="cls-3"
          d="M373.33,204.14c-4.45-2.15-9.18-3.87-13.28-6.55-4.86-3.18-8.74-2.55-12.88,1-1.39,1.2-2.82,2.81-5.24,2.3-5.42-1.13-7-2.9-6.09-8.35.91-5.68.41-11.27-.27-16.89a46.38,46.38,0,0,1-.63-6c0-3.42,2.22-6.19,4.54-8,1.74-1.32,3.3,1.92,5,3.06,11.57,7.88,17.17,20.52,24.93,31.45,1.63,2.3,3.09,4.71,4.63,7.07Z"/>
</svg>
