<!-- Generated by IcoMoon.io -->
<svg version="1.1" xmlns="http://www.w3.org/2000/svg" width="32" height="32" viewBox="0 0 32 32">
<title>actor</title>
<path d="M15.52 15.552c4.704 0.128 8.576-3.36 8.416-7.616-0.128-3.872-3.616-7.040-7.872-7.168-4.704-0.128-8.544 3.36-8.384 7.648 0.128 3.872 3.584 7.008 7.84 7.136zM16.032 3.2c2.848 0.096 5.152 2.208 5.248 4.8 0.096 2.848-2.464 5.184-5.6 5.088-2.88-0.096-5.184-2.208-5.28-4.768-0.096-2.88 2.496-5.216 5.632-5.12zM27.52 18.56c-0.288-1.824-2.016-3.264-4.512-3.296-1.76 1.696-3.744 2.624-6.88 2.624v0c0 0 0 0 0 0s0 0-0.032 0v0c-3.104 0-5.088-0.928-6.88-2.624-2.464 0.032-4.224 1.472-4.48 3.296l-1.824 10.112c-0.032 0.064-0.032 0.128 0 0.16 0.608 2.144 1.888 2.432 4.672 2.432h17.056c2.848 0 4.672-1.248 4.672-2.752l-1.792-9.952zM24.352 29.312h-16.448c-2.048 0-3.2-0.672-2.432-3.456l0.992-5.184c0.288-1.472 0.96-2.816 2.56-2.784 1.92 2.048 3.776 2.176 7.072 2.304 0 0 5.216-0.16 7.104-2.208 1.632-0.032 2.304 1.216 2.592 2.688l0.96 5.184c0.672 3.232-0.896 3.456-2.4 3.456z"></path>
</svg>
