<!-- Generated by IcoMoon.io -->
<svg version="1.1" xmlns="http://www.w3.org/2000/svg" width="32" height="32" viewBox="0 0 32 32">
<title>baseline</title>
<path d="M29.184 10.848v-4.288h-0.032v-0.064h-16.768v-2.976h-9.28v7.328h-2.24l2.624 18.336h25.248l2.56-18.336h-2.112zM4.128 4.544h7.2v2.976h16.832v3.296h-24.032v-6.272zM27.84 28.128h-23.488l-2.048-16.064h27.584l-2.048 16.064zM16.096 13.856c-3.904 0-6.912 3.104-6.72 6.72 0.192 3.424 3.2 6.080 6.72 6.080s6.528-2.656 6.72-6.080c0.224-3.616-2.816-6.72-6.72-6.72zM21.536 20.576c-0.096 2.784-2.592 4.992-5.44 4.992s-5.312-2.208-5.44-4.992c-0.096-2.848 2.368-5.344 5.44-5.344s5.568 2.496 5.44 5.344zM16.736 20.832l1.856 1.76-0.864 0.8-2.304-2.144 0.032-4.032h1.312l-0.032 3.616z"></path>
</svg>
