<!-- Generated by IcoMoon.io -->
<svg version="1.1" xmlns="http://www.w3.org/2000/svg" width="32" height="32" viewBox="0 0 32 32">
<title>business-process</title>
<path d="M6.784 10.4c2.624 0 4.736-2.112 4.736-4.736s-2.112-4.768-4.736-4.768-4.768 2.144-4.768 4.768 2.112 4.736 4.768 4.736zM6.784 2.944c1.504 0 2.72 1.216 2.72 2.72s-1.216 2.72-2.72 2.72-2.752-1.216-2.752-2.72 1.216-2.72 2.752-2.72zM1.216 25.664l5.312 5.344c0.16 0.16 0.416 0.16 0.576 0l5.344-5.344c0.16-0.16 0.16-0.416 0-0.576l-5.344-5.344c-0.16-0.16-0.416-0.16-0.576 0l-5.344 5.344c-0.16 0.16-0.16 0.416 0.032 0.576zM6.816 28.768l-3.392-3.392 3.392-3.424 3.392 3.424-3.392 3.392zM30.688 20.128h-8.832c-0.224 0-0.416 0.192-0.416 0.416v8.8c0 0.256 0.192 0.416 0.416 0.416h8.832c0.224 0 0.416-0.16 0.416-0.416v-8.8c0-0.224-0.192-0.416-0.416-0.416zM23.36 27.84v-5.792h5.824v5.792h-5.824zM5.952 11.296v4.704l-2.048-1.984-0.896 0.928 3.648 3.744 3.648-3.68-0.896-0.896-1.856 1.792v-4.608h-1.6zM16.288 22.4l1.792 1.92h-4.576v1.472h4.704l-1.984 2.112 0.896 0.928 3.744-3.68-3.648-3.648-0.928 0.896z"></path>
</svg>
