<!-- Generated by IcoMoon.io -->
<svg version="1.1" xmlns="http://www.w3.org/2000/svg" width="32" height="32" viewBox="0 0 32 32">
<title>collections</title>
<path d="M28.736 9.6l0.064-9.408h-19.872v2.528h-2.496l0.032 2.976h-2.56v7.808l-3.424 2.656 0.096 15.872 25.12 0.032 5.728-6.432 0.064-16-2.752-0.032zM10.048 1.504h17.632v12.192l-1.28 1.44 0.128-12.416h-16.48v-1.216zM7.776 4.032h17.408l-0.128 12.16h-1.376v-10.496h-15.904v-1.664zM22.336 7.104v9.088h-17.184v-9.088h17.184zM3.904 15.168v1.024h-1.344l1.344-1.024zM23.968 30.368h-21.728v-12.512h21.728v12.512zM30.368 25.184l-4.64 5.184-0.096-12.576 4.736-5.44v12.832zM28.704 12.48l0.032-1.984h1.728l-1.76 1.984z"></path>
</svg>
