<!-- Generated by IcoMoon.io -->
<svg version="1.1" xmlns="http://www.w3.org/2000/svg" width="32" height="32" viewBox="0 0 32 32">
<title>document</title>
<path d="M22.944 7.584h6.4l-6.72-6.752v6.4c0 0.192 0.128 0.352 0.32 0.352zM29.184 9.408h-8.128c-0.128 0-0.224-0.096-0.224-0.192v-8.192c0-0.128-0.064-0.224-0.192-0.224h-17.792c-0.128 0-0.224 0.096-0.224 0.224v30.112c0 0.128 0.096 0.192 0.224 0.192l26.336-0.032c0.128 0 0.224-0.096 0.224-0.192v-21.472c0-0.128-0.128-0.224-0.224-0.224zM27.616 29.408c0 0.096-0.064 0.16-0.128 0.16h-22.944c-0.096 0-0.16-0.064-0.16-0.16v-26.656c0-0.096 0.064-0.16 0.16-0.16h14.4c0.064 0 0.128 0.064 0.128 0.16v8.096c0 0.192 0.16 0.352 0.352 0.352h8.064c0.064 0 0.128 0.064 0.128 0.128v18.080zM22.944 15.488h-14.208c-0.096 0-0.128 0.064-0.128 0.128v1.504c0 0.096 0.032 0.16 0.128 0.16h14.208c0.096 0 0.16-0.064 0.16-0.16v-1.504c0-0.064-0.064-0.128-0.16-0.128zM22.944 19.872h-14.208c-0.096 0-0.128 0.064-0.128 0.128v1.504c0 0.096 0.032 0.128 0.128 0.128h14.208c0.096 0 0.16-0.032 0.16-0.128v-1.504c0-0.064-0.064-0.128-0.16-0.128zM22.88 24.224h-14.144c-0.096 0-0.128 0.064-0.128 0.16v1.504c0 0.064 0.032 0.128 0.128 0.128h14.144c0.064 0 0.128-0.064 0.128-0.128v-1.504c0-0.096-0.064-0.16-0.128-0.16z"></path>
</svg>
