<!-- Generated by IcoMoon.io -->
<svg version="1.1" xmlns="http://www.w3.org/2000/svg" width="32" height="32" viewBox="0 0 32 32">
<title>domain-diagram</title>
<path d="M20.512 10.464h10.4c0.128 0 0.192-0.064 0.192-0.192v-7.36c0-0.128-0.064-0.224-0.192-0.224h-10.4c-0.128 0-0.224 0.096-0.224 0.224v2.432l-6.080 0.032c-0.128 0-0.224 0.096-0.224 0.224v9.344h-3.328v-5.984c0-0.096-0.096-0.192-0.224-0.192h-9.664c-0.128 0-0.224 0.096-0.224 0.192v14.144c0 0.096 0.096 0.192 0.224 0.192h9.664c0.128 0 0.224-0.096 0.224-0.192v-6.176h3.328v9.728c0 0.128 0.096 0.224 0.224 0.224h6.112v2.912c0 0.128 0.064 0.224 0.192 0.224h10.4c0.128 0 0.224-0.096 0.224-0.224v-7.36c0-0.128-0.096-0.224-0.224-0.224h-10.4c-0.128 0-0.224 0.096-0.224 0.224v2.432l-4.224 0.032c-0.064 0-0.096-0.064-0.096-0.128v-7.84h0.096l0.032 0.032h4.192v2.944c0 0.128 0.096 0.224 0.224 0.224h10.4c0.128 0 0.192-0.096 0.192-0.224v-7.36c0-0.096-0.064-0.192-0.192-0.192h-10.4c-0.128 0-0.224 0.096-0.224 0.192v2.4h-4.32v-7.488c0-0.096 0.064-0.16 0.128-0.16h4.192v2.976c0 0.128 0.096 0.192 0.224 0.192zM22.368 4.736c0-0.096 0.096-0.192 0.192-0.192h6.304c0.096 0 0.192 0.096 0.192 0.192v3.68c0 0.096-0.096 0.192-0.192 0.192h-6.304c-0.096 0-0.192-0.064-0.192-0.192v-3.68zM8.768 21.28c0 0.064-0.064 0.16-0.16 0.16h-6.016c-0.064 0-0.16-0.096-0.16-0.16v-10.464c0-0.096 0.096-0.16 0.16-0.16h6.016c0.096 0 0.16 0.064 0.16 0.16v10.464zM22.368 24.256c0-0.096 0.096-0.192 0.192-0.192h6.304c0.096 0 0.192 0.096 0.192 0.192v3.712c0 0.096-0.096 0.192-0.192 0.192h-6.304c-0.096 0-0.192-0.096-0.192-0.192v-3.712zM22.368 14.4c0-0.096 0.096-0.192 0.192-0.192h6.304c0.096 0 0.192 0.064 0.192 0.192v3.68c0 0.096-0.096 0.192-0.192 0.192h-6.304c-0.096 0-0.192-0.096-0.192-0.192v-3.68z"></path>
</svg>
