<!-- Generated by IcoMoon.io -->
<svg version="1.1" xmlns="http://www.w3.org/2000/svg" width="32" height="32" viewBox="0 0 32 32">
<title>folder</title>
<path d="M31.072 6.976h-17.408c-0.096 0-0.128-0.064-0.192-0.096l-3.072-4.16c-0.096-0.128-0.192-0.192-0.352-0.192h-9.28c-0.128 0-0.224 0.096-0.224 0.224v26.976c0 0.128 0.096 0.224 0.224 0.224l30.272-0.032c0.128 0 0.224-0.096 0.224-0.192l0.032-22.56c0-0.096-0.096-0.192-0.224-0.192zM9.408 4.288l3.040 4.064c0.096 0.16 0.288 0.224 0.448 0.224l16.64 0.032v2.368h-27.2v-6.656c0-0.096 0.064-0.16 0.16-0.16h6.72c0.064 0 0.16 0.064 0.192 0.128zM2.336 28v-15.232c0-0.064 0.064-0.128 0.128-0.128h26.912c0.064 0 0.128 0.064 0.128 0.128v15.232c0 0.096-0.064 0.16-0.128 0.16h-26.912c-0.064 0-0.128-0.064-0.128-0.16z"></path>
</svg>
