<!-- Generated by IcoMoon.io -->
<svg version="1.1" xmlns="http://www.w3.org/2000/svg" width="32" height="32" viewBox="0 0 32 32">
<title>folder-open</title>
<path d="M31.36 13.696h-3.68v-6.528c0-0.096-0.096-0.192-0.192-0.192h-13.824c-0.064 0-0.128-0.032-0.16-0.096l-3.104-4.16c-0.064-0.128-0.192-0.16-0.32-0.16h-9.312c-0.128 0-0.224 0.064-0.224 0.192v26.976c0 0.128 0.096 0.224 0.224 0.224h15.2l8.512 0.032c0.096 0 0.192-0.096 0.192-0.192l6.88-15.872c0.032-0.128-0.064-0.224-0.192-0.224zM2.464 4.16h6.72c0.096 0 0.192 0.064 0.224 0.128l3.040 4.064c0.096 0.128 0.288 0.224 0.448 0.224l13.024 0.032v5.056h-18.24c-0.096 0-0.192 0.096-0.192 0.192l-5.152 11.648v-21.184c0-0.096 0.064-0.16 0.128-0.16zM23.424 28.352h-20.608l5.664-13.056h20.704l-5.76 13.056z"></path>
</svg>
