<!-- Generated by IcoMoon.io -->
<svg version="1.1" xmlns="http://www.w3.org/2000/svg" width="32" height="32" viewBox="0 0 32 32">
<title>generic-diagram</title>
<path d="M31.328 16.032l-3.616-4.128-0.896 1.056 1.76 1.984h-4.704v-4.768c0-0.128-0.096-0.224-0.224-0.224h-2.912v-2.88c0.704-0.352 1.216-1.216 1.216-2.176 0-1.312-0.864-2.368-1.952-2.368s-1.952 1.056-1.952 2.368c0 0.96 0.512 1.824 1.216 2.176v2.88h-6.848v-2.88c0.704-0.352 1.216-1.184 1.216-2.176 0-1.312-0.864-2.368-1.952-2.368s-1.952 1.056-1.952 2.368c0 0.96 0.512 1.792 1.216 2.144v2.912h-2.496c-0.128 0-0.224 0.096-0.224 0.224v4.768h-5.024l1.888-2.112-0.896-1.024-3.648 4.096 0.064 0.064 3.616 4.128 0.896-1.056-2.048-2.304h5.152v5.024c0 0.128 0.096 0.192 0.224 0.192h2.496v3.456c-0.704 0.352-1.216 1.184-1.216 2.176 0 1.312 0.864 2.336 1.952 2.336s1.952-1.024 1.952-2.336c0-0.992-0.512-1.824-1.216-2.176v-3.456h6.848v3.36c-0.704 0.352-1.216 1.184-1.216 2.176 0 1.312 0.896 2.368 1.952 2.368s1.952-1.056 1.952-2.368c0-0.992-0.512-1.824-1.216-2.176v-3.36h2.944c0.096 0 0.192-0.064 0.192-0.192v-5.024h5.056l-2.144 2.432 0.896 1.024 3.616-4.096v-0.032l0.032-0.032zM19.36 4.736c0.032-0.352 0.256-0.608 0.544-0.672 0.448-0.096 0.864 0.384 0.768 0.928-0.032 0.32-0.256 0.608-0.544 0.672-0.448 0.096-0.864-0.384-0.768-0.928zM11.040 4.736c0.064-0.352 0.288-0.608 0.544-0.672 0.48-0.096 0.864 0.384 0.8 0.928-0.064 0.32-0.288 0.608-0.576 0.672-0.448 0.096-0.832-0.384-0.768-0.928zM12.352 27.712c-0.032 0.32-0.256 0.608-0.544 0.64-0.448 0.096-0.864-0.384-0.768-0.928 0.032-0.32 0.256-0.608 0.544-0.672 0.448-0.064 0.864 0.384 0.768 0.96zM20.672 27.616c-0.032 0.352-0.256 0.608-0.544 0.672-0.448 0.096-0.864-0.384-0.768-0.928 0.032-0.32 0.224-0.544 0.448-0.64h0.416c0.288 0.096 0.512 0.48 0.448 0.896zM22.080 20.32h-11.904c-0.096 0-0.128-0.064-0.128-0.16v-8.32c0-0.096 0.032-0.16 0.128-0.16h11.744c0.096 0 0.16 0.064 0.16 0.16v8.48z"></path>
</svg>
