<!-- Generated by IcoMoon.io -->
<svg version="1.1" xmlns="http://www.w3.org/2000/svg" width="32" height="32" viewBox="0 0 32 32">
<title>glossary</title>
<path d="M30.112 1.344c-0.128 0.128-0.128 0.416-0.128 0.576v2.912l-0.096 23.136c0-0.032 0.032-0.192 0.032-0.192v1.792c0 0.128-0.192 0.288-0.352 0.288h-25.248c-0.96 0-1.984 0-1.984-1.312 0-0.928 0.832-0.992 1.824-0.992l22.944 0.128c0.288 0 0.544-0.256 0.544-0.544l0.032-25.664c0-0.32-0.256-0.576-0.576-0.576h-22.976c-1.888 0-3.488 1.248-3.488 2.816l-0.064 24.736c0 1.184 0.768 2.464 1.92 2.848l28.288 0.032c0.32 0 0.512-0.224 0.512-0.48l0.064-27.2v-0.672l-1.248-1.632zM5.184 2.816l20.384 0.032c0.128 0 0.256 0.128 0.256 0.288v22.368c0 0.16-0.128 0.288-0.256 0.288h-22.944c-0.16 0-0.288-0.128-0.288-0.288l0.096-19.904c-0.096-1.728 0.64-2.784 2.752-2.784zM6.816 13.888c-0.416-0.032-0.64-0.064-0.736-0.128-0.16-0.096-0.256-0.256-0.256-0.448 0-0.16 0.064-0.352 0.16-0.608l0.32-0.736h2.624l0.384 0.928c0.096 0.256 0.16 0.384 0.16 0.416 0.032 0.064 0.032 0.128 0.032 0.192 0 0.128-0.032 0.192-0.096 0.256-0.128 0.096-0.32 0.128-0.608 0.128h-0.16v0.192h3.584v-0.192c-0.224-0.032-0.416-0.096-0.544-0.192-0.16-0.16-0.352-0.512-0.608-1.088l-2.688-6.112h-0.096l-2.688 5.92c-0.224 0.576-0.448 0.96-0.608 1.12-0.192 0.192-0.384 0.32-0.672 0.352v0.192h2.464v-0.192zM7.616 8.992l1.12 2.56h-2.272l1.152-2.56zM23.264 14.656l0.288-2.688h-0.224c-0.096 0.576-0.32 1.056-0.64 1.408s-0.704 0.608-1.12 0.736c-0.288 0.064-0.736 0.128-1.408 0.128h-1.408l4.352-7.040h-5.856l-0.192 2.176h0.192c0.096-0.352 0.192-0.64 0.352-0.864 0.128-0.256 0.32-0.448 0.544-0.576s0.48-0.224 0.736-0.288c0.128-0.032 0.416-0.032 0.832-0.032h1.088l-4.352 7.040h6.816z"></path>
</svg>
