<!-- Generated by IcoMoon.io -->
<svg version="1.1" xmlns="http://www.w3.org/2000/svg" width="32" height="32" viewBox="0 0 32 32">
<title>storyteller</title>
<path d="M14.368 15.744c0.096-0.064 0.192-0.096 0.256-0.096 0.096 0 0.256 0.032 0.384 0.096 0.288 0.096 0.512 0.16 0.704 0.192 0.192 0.064 0.384 0.064 0.576 0.064 0.672 0 1.216-0.16 1.632-0.512s0.64-0.768 0.64-1.28c0-0.384-0.128-0.736-0.416-1.024-0.256-0.288-0.768-0.608-1.536-0.96-0.544-0.224-0.896-0.416-1.056-0.512-0.192-0.128-0.352-0.256-0.448-0.384-0.064-0.096-0.096-0.224-0.096-0.352 0-0.224 0.096-0.384 0.288-0.544s0.448-0.256 0.768-0.256c0.416 0 0.832 0.16 1.184 0.448 0.352 0.32 0.576 0.704 0.672 1.184h0.224l-0.064-1.952h-0.16c-0.032 0.192-0.064 0.288-0.128 0.352-0.032 0.032-0.096 0.064-0.192 0.064s-0.224-0.032-0.448-0.128c-0.224-0.096-0.416-0.16-0.544-0.192-0.224-0.064-0.416-0.096-0.64-0.096-0.576 0-1.056 0.192-1.44 0.512s-0.576 0.704-0.576 1.184c0 0.288 0.064 0.512 0.192 0.768 0.16 0.224 0.352 0.416 0.608 0.608s0.704 0.416 1.28 0.672c0.448 0.192 0.736 0.32 0.896 0.448s0.288 0.224 0.384 0.352c0.096 0.16 0.128 0.288 0.128 0.416 0 0.224-0.096 0.448-0.32 0.608-0.224 0.192-0.512 0.256-0.864 0.256-0.48 0-0.896-0.16-1.312-0.48s-0.672-0.8-0.832-1.408h-0.16v2.208h0.16c0.096-0.128 0.16-0.192 0.256-0.256zM13.12 19.584h0.192c0.064-0.48 0.256-0.864 0.512-1.12 0.224-0.192 0.544-0.256 0.96-0.256h0.48v4.192c0 0.352-0.032 0.544-0.064 0.608-0.032 0.128-0.096 0.192-0.192 0.224-0.128 0.096-0.256 0.128-0.448 0.128h-0.224v0.16h3.424v-0.16h-0.192c-0.192 0-0.352-0.032-0.448-0.096-0.128-0.064-0.192-0.16-0.224-0.224-0.032-0.096-0.064-0.288-0.064-0.64v-4.224h0.512c0.288 0 0.512 0.032 0.64 0.096 0.192 0.096 0.384 0.256 0.512 0.416 0.128 0.192 0.224 0.48 0.32 0.896h0.192v-1.792h-5.888v1.792zM31.296 16.224c-0.096-1.216-1.12-2.208-2.336-2.24-1.088-0.032-2.016 0.64-2.368 1.6h-3.008v-8.896c0-0.128-0.096-0.224-0.224-0.224h-14.72c-0.128 0-0.224 0.096-0.224 0.224v8.896h-3.2c-0.384-0.896-1.312-1.504-2.368-1.472-1.216 0.064-2.208 1.056-2.272 2.24-0.096 1.44 1.024 2.592 2.4 2.592 1.024 0 1.92-0.64 2.272-1.568h3.168v8.928c0 0.096 0.096 0.192 0.224 0.192h14.72c0.128 0 0.224-0.096 0.224-0.192v-8.928h3.072c0.384 0.832 1.248 1.44 2.208 1.44 1.408 0 2.528-1.184 2.432-2.592zM2.976 17.728c-0.672 0-1.216-0.544-1.216-1.216s0.544-1.216 1.216-1.216 1.216 0.544 1.216 1.216-0.544 1.216-1.216 1.216zM22.144 8v16.992c0 0.096-0.064 0.16-0.16 0.16h-11.904c-0.096 0-0.16-0.064-0.16-0.16v-16.96c0-0.096 0.064-0.16 0.384-0.16h11.904c-0.16 0-0.064 0.064-0.064 0.128zM28.864 17.632c-0.672 0-1.216-0.544-1.216-1.216s0.544-1.216 1.216-1.216 1.216 0.544 1.216 1.216-0.544 1.216-1.216 1.216z"></path>
</svg>
