<!-- Generated by IcoMoon.io -->
<svg version="1.1" xmlns="http://www.w3.org/2000/svg" width="32" height="32" viewBox="0 0 32 32">
<title>project</title>
<path d="M31.962 5.513c0-0.013 0-0.037 0-0.050 0-0.025 0-0.037 0-0.063 0-0.013 0-0.025 0-0.050s-0.012-0.050-0.012-0.075c0-0.013 0-0.025-0.012-0.037-0.012-0.075-0.038-0.15-0.075-0.225 0-0.013-0.012-0.025-0.012-0.037-0.012-0.025-0.025-0.050-0.038-0.063s-0.012-0.025-0.025-0.037c-0.012-0.013-0.025-0.037-0.038-0.050s-0.012-0.025-0.025-0.037-0.025-0.037-0.050-0.063c-0.012-0.013-0.025-0.037-0.050-0.050-0.012-0.013-0.038-0.037-0.050-0.050s-0.025-0.025-0.038-0.037-0.038-0.025-0.050-0.037c-0.012-0.013-0.025-0.013-0.038-0.025-0.025-0.013-0.038-0.025-0.063-0.037-0.012-0.013-0.025-0.013-0.038-0.025-0.025-0.013-0.050-0.025-0.063-0.037-0.012 0-0.025-0.013-0.025-0.013-0.038-0.013-0.063-0.025-0.1-0.050-0.012 0-0.012 0-0.025-0.013-0.025-0.013-0.050-0.013-0.075-0.025h-0.012l-14.375-4.188c-0.225-0.063-0.462-0.063-0.688 0l-15.012 4.188c-0.012 0-0.025 0.013-0.037 0.013-0.025 0.013-0.050 0.013-0.075 0.025-0.012 0-0.025 0.013-0.037 0.013-0.025 0.013-0.050 0.025-0.063 0.025s-0.025 0.013-0.037 0.013-0.037 0.025-0.063 0.037c-0.012 0.013-0.025 0.013-0.037 0.025-0.025 0.013-0.037 0.025-0.063 0.037-0.012 0.013-0.025 0.013-0.025 0.025-0.025 0.013-0.050 0.037-0.063 0.063-0.013 0.013-0.025 0.025-0.037 0.037s-0.037 0.037-0.050 0.063c-0.013 0.013-0.025 0.025-0.037 0.037s-0.025 0.025-0.037 0.050c-0.013 0.013-0.025 0.025-0.025 0.050-0.013 0.013-0.025 0.037-0.038 0.050s-0.013 0.025-0.025 0.037-0.025 0.050-0.038 0.075c0 0.013-0.013 0.013-0.013 0.025-0.013 0.037-0.025 0.075-0.038 0.112 0 0 0 0 0 0.013s0 0.013 0 0.025c-0.012 0.025-0.012 0.050-0.025 0.088 0 0.013 0 0.025-0.012 0.037 0 0.025-0.012 0.050-0.012 0.075 0 0.013 0 0.037 0 0.050 0 0.025 0 0.037 0 0.063 0 0.013 0 0.037 0 0.050v0 18.813c0 0.5 0.3 0.95 0.762 1.15l15 6.363c0.113 0.050 0.238 0.087 0.363 0.1 0.038 0 0.087 0.012 0.125 0.012 0.087 0 0.175-0.012 0.262-0.025v0c0.038-0.012 0.087-0.025 0.125-0.038h0.012c0.038-0.012 0.075-0.025 0.1-0.038v0l14.387-6.363c0.45-0.2 0.75-0.65 0.75-1.137l-0.012-18.863c0 0.013 0 0.013 0 0zM16.313 2.638l10.225 2.975-10.225 3.45-10.662-3.45 10.662-2.975zM2.563 7.25l12.512 4.037v17.538l-12.512-5.313v-16.262zM17.575 28.788v-17.512l11.887-4v16.262l-11.887 5.25z"></path>
</svg>
