<!-- Generated by IcoMoon.io -->
<svg version="1.1" xmlns="http://www.w3.org/2000/svg" width="32" height="32" viewBox="0 0 32 32">
<title>review</title>
<path d="M22.624 7.232v-6.4l6.72 6.752h-6.4c-0.192 0-0.32-0.16-0.32-0.352zM26.848 31.296h2.336c0.096 0 0.192-0.096 0.192-0.192v-2.24c-0.672 0.96-1.536 1.792-2.528 2.432zM30.336 20.288l-1.184-1.536-8.096 6.4-2.912-3.616-1.536 1.184 4.128 5.12 0.064-0.064v0.032l9.536-7.52zM13.504 29.568h-8.96c-0.096 0-0.16-0.064-0.16-0.16v-26.656c0-0.096 0.064-0.16 0.16-0.16h14.4c0.064 0 0.128 0.064 0.128 0.16v8.096c0 0.192 0.16 0.352 0.352 0.352h8.064c0.064 0 0.128 0.064 0.128 0.128v4.48c0.672 0.48 1.248 1.056 1.76 1.696v-7.872c0-0.128-0.096-0.224-0.192-0.224h-8.128c-0.128 0-0.224-0.096-0.224-0.192v-8.192c0-0.128-0.096-0.224-0.192-0.224h-17.792c-0.128 0-0.224 0.096-0.224 0.224v30.112c0 0.128 0.096 0.192 0.224 0.192h12.448c-0.672-0.512-1.248-1.12-1.792-1.76zM29.088 23.040l-2.112 1.568c-0.48 2.784-2.88 4.896-5.792 4.896-3.264 0-5.888-2.624-5.888-5.888 0-3.232 2.624-5.856 5.888-5.856 1.568 0 3.008 0.608 4.064 1.632l1.632-1.248c-1.44-1.504-3.456-2.432-5.696-2.432-4.384 0-7.936 3.52-7.936 7.904s3.552 7.936 7.936 7.936 7.936-3.552 7.936-7.936c0-0.192 0-0.384-0.032-0.576z"></path>
</svg>
