<!-- Generated by IcoMoon.io -->
<svg version="1.1" xmlns="http://www.w3.org/2000/svg" width="32" height="32" viewBox="0 0 32 32">
<title>storyboard</title>
<path d="M30.624 2.464l-29.504 0.064c-0.32 0-0.576 0.256-0.576 0.544v26.304c0 0.32 0.256 0.544 0.576 0.544l29.504-0.032c0.288 0 0.544-0.256 0.544-0.576v-26.272c0-0.32-0.256-0.576-0.544-0.576zM29.376 28.128h-27.008v-23.808h27.008v23.808zM4.672 14.112h9.76c0.16 0 0.288-0.128 0.288-0.256v-5.952c0-0.16-0.128-0.288-0.288-0.288h-9.76c-0.16 0-0.288 0.128-0.288 0.288v5.952c0 0.16 0.128 0.256 0.288 0.256zM6.048 9.472c0-0.064 0.064-0.128 0.16-0.128h6.72c0.064 0 0.128 0.064 0.128 0.128v2.784c0 0.096-0.064 0.16-0.128 0.16h-6.72c-0.096 0-0.16-0.064-0.16-0.16v-2.784zM17.28 10.112h9.984c0.064 0 0.128-0.064 0.128-0.128v-1.536c0-0.064-0.064-0.128-0.128-0.128h-9.984c-0.064 0-0.128 0.064-0.128 0.128v1.536c0 0.064 0.064 0.128 0.128 0.128zM17.28 14.112h9.984c0.064 0 0.128-0.064 0.128-0.128v-1.536c0-0.064-0.064-0.128-0.128-0.128h-9.984c-0.064 0-0.128 0.064-0.128 0.128v1.536c0 0.096 0.064 0.128 0.128 0.128zM17.344 24.384h9.76c0.128 0 0.256-0.128 0.256-0.288v-5.952c0-0.16-0.128-0.288-0.256-0.288h-9.76c-0.16 0-0.288 0.128-0.288 0.288v5.952c0 0.16 0.128 0.288 0.288 0.288zM18.72 19.712c0-0.064 0.064-0.128 0.128-0.128h6.72c0.096 0 0.16 0.064 0.16 0.128v2.784c0 0.096-0.064 0.16-0.16 0.16h-6.72c-0.064 0-0.128-0.064-0.128-0.16v-2.784zM4.512 20.032h9.952c0.096 0 0.16-0.064 0.16-0.16v-1.504c0-0.096-0.064-0.16-0.16-0.16h-9.952c-0.096 0-0.16 0.064-0.16 0.16v1.504c0 0.096 0.064 0.16 0.16 0.16zM4.512 24.032h9.952c0.096 0 0.16-0.064 0.16-0.16v-1.504c0-0.096-0.064-0.16-0.16-0.16h-9.952c-0.096 0-0.16 0.064-0.16 0.16v1.504c0 0.096 0.064 0.16 0.16 0.16z"></path>
</svg>
