<!-- Generator: Adobe Illustrator 21.1.0, SVG Export Plug-In . SVG Version: 6.00 Build 0)  -->
<svg version="1.1" xmlns="http://www.w3.org/2000/svg" width="32" height="32" viewBox="0 0 256 256">
  <title>subartifact</title>
  <path d="M246,75.7c5.5,0,10-4.5,10-10V9.5c0-5.5-4.5-10-10-10h-56.2c-5.5,0-10,4.5-10,10v18.1H76.2V9.5
	  c0-5.5-4.5-10-10-10H10C4.5-0.5,0,4,0,9.5v56.2c0,5.5,4.5,10,10,10h18.1v104.6H10c-5.5,0-10,4.5-10,10v56.2c0,5.5,4.5,10,10,10h56.2
	  c5.5,0,10-4.5,10-10v-18.1h103.6v18.1c0,5.5,4.5,10,10,10H246c5.5,0,10-4.5,10-10v-56.2c0-5.5-4.5-10-10-10h-18.1V75.7H246z
	   M199.8,19.5H236v36.2h-36.2V19.5z M20,19.5h36.2v36.2H20V19.5z M56.2,236.5H20v-36.2h36.2V236.5z M236,236.5h-36.2v-36.2H236V236.5
	  z M207.9,180.3h-18.1c-5.5,0-10,4.5-10,10v18.1H76.2v-18.1c0-5.5-4.5-10-10-10H48.1V75.7h18.1c5.5,0,10-4.5,10-10V47.6h103.6v18.1
	  c0,5.5,4.5,10,10,10h18.1V180.3z"/>
</svg>
