<!-- Generated by IcoMoon.io -->
<svg version="1.1" xmlns="http://www.w3.org/2000/svg" width="32" height="32" viewBox="0 0 32 32">
<title>subartifact</title>
<path d="M29.536 18.528h1.184c0.224 0 0.416-0.128 0.416-0.352v-3.584c0-0.224-0.192-0.384-0.416-0.384h-3.584c-0.224 0-0.448 0.16-0.448 0.384v1.376h-8.128v-1.376c0-0.224-0.192-0.384-0.416-0.384h-3.584c-0.224 0-0.384 0.16-0.384 0.384v3.584c0 0.224 0.16 0.352 0.384 0.352h1.216v8.416h-1.216c-0.224 0-0.384 0.224-0.384 0.416v3.616c0 0.224 0.16 0.416 0.384 0.416h3.584c0.224 0 0.416-0.192 0.416-0.416v-1.312h8.128v1.248c0 0.192 0.224 0.416 0.448 0.416h3.584c0.224 0 0.416-0.224 0.416-0.416v-3.616c0-0.224-0.192-0.352-0.416-0.352h-1.184v-8.416zM17.376 17.12c0 0.16-0.128 0.288-0.288 0.288h-1.44c-0.16 0-0.288-0.128-0.288-0.288v-1.44c0-0.16 0.128-0.288 0.288-0.288h1.44c0.16 0 0.288 0.128 0.288 0.288v1.44zM30.016 17.12c0 0.16-0.128 0.288-0.288 0.288h-1.44c-0.16 0-0.288-0.128-0.288-0.288v-1.44c0-0.16 0.128-0.288 0.288-0.288h1.44c0.16 0 0.288 0.128 0.288 0.288v1.44zM18.56 27.584v-0.224c0-0.192-0.192-0.416-0.416-0.416h-0.288v-8.416h0.288c0.224 0 0.416-0.128 0.416-0.352v-0.256h8.128v0.256c0 0.224 0.224 0.352 0.448 0.352h0.384v8.416h-0.384c-0.224 0-0.448 0.128-0.448 0.352v0.288h-8.128zM30.016 30.016c0 0.16-0.128 0.288-0.288 0.288h-1.44c-0.16 0-0.288-0.128-0.288-0.288v-1.472c0-0.16 0.128-0.256 0.288-0.256h1.44c0.16 0 0.288 0.096 0.288 0.256v1.472zM17.376 30.080c0 0.16-0.128 0.288-0.288 0.288h-1.44c-0.16 0-0.288-0.128-0.288-0.288v-1.44c0-0.16 0.128-0.288 0.288-0.288h1.44c0.16 0 0.288 0.128 0.288 0.288v1.44zM0.608 0.736v23.712h14.048v-2.496h-11.424v-13.376h22.272v5.856h0.544v-1.408h2.112v-12.288h-27.552zM20.16 3.36v2.848h-11.488v-2.848h11.488zM3.232 3.36h3.072v2.848h-3.072v-2.848zM22.528 6.208v-2.848h2.976v2.848h-2.976z"></path>
</svg>
