<!-- Generated by IcoMoon.io -->
<svg version="1.1" xmlns="http://www.w3.org/2000/svg" width="32" height="32" viewBox="0 0 32 32">
<title>ui-mockup</title>
<path d="M30.976 2.592h-30.048c-0.128 0-0.256 0.128-0.256 0.256v26.816c0 0.16 0.128 0.256 0.256 0.256h1.088v0.064h28.064v-0.064h0.896c0.128 0 0.256-0.096 0.256-0.256v-26.816c0.032-0.128-0.096-0.256-0.256-0.256zM29.44 28.032c0 0.096-0.064 0.16-0.128 0.16h-26.72c-0.064 0-0.128-0.064-0.128-0.16v-17.728c0-0.064 0.064-0.128 0.128-0.128h26.72c0.064 0 0.128 0.064 0.128 0.128v17.728zM29.44 8.224c0 0.096-0.064 0.128-0.128 0.128h-26.72c-0.064 0-0.128-0.032-0.128-0.128v-3.68c0-0.096 0.064-0.16 0.128-0.16h26.72c0.064 0 0.128 0.064 0.128 0.16v3.68zM14.816 12.672h-0.032v-0.032h-9.664c-0.096 0-0.16 0.064-0.16 0.16v13.376c0 0.096 0.064 0.128 0.16 0.128v0.064h9.6v-0.032h0.096c0.064 0 0.128-0.064 0.128-0.128v-13.408c0-0.064-0.064-0.128-0.128-0.128zM12.032 14.432l-2.24 3.488-2.272-3.488h4.512zM6.784 16.576l1.92 3.008-1.92 2.976v-5.984zM7.616 24.576l2.144-3.36 2.176 3.36h-4.32zM13.152 23.136l-2.304-3.552 2.304-3.584v7.136zM27.104 13.824h-9.344c-0.096 0-0.16 0.064-0.16 0.16v1.504c0 0.064 0.064 0.128 0.16 0.128h9.344c0.064 0 0.128-0.064 0.128-0.128v-1.504c0-0.096-0.064-0.16-0.128-0.16zM27.104 18.592h-9.344c-0.096 0-0.16 0.064-0.16 0.128v1.504c0 0.096 0.064 0.16 0.16 0.16h9.344c0.064 0 0.128-0.064 0.128-0.16v-1.504c0-0.064-0.064-0.128-0.128-0.128zM27.104 23.264h-9.344c-0.096 0-0.16 0.064-0.16 0.128v1.504c0 0.096 0.064 0.16 0.16 0.16h9.344c0.064 0 0.128-0.064 0.128-0.16v-1.504c0-0.064-0.064-0.128-0.128-0.128z"></path>
</svg>
