<!-- Generated by IcoMoon.io -->
<svg version="1.1" xmlns="http://www.w3.org/2000/svg" width="32" height="32" viewBox="0 0 32 32">
<title>use-case</title>
<path d="M16 6.56c-8.512 0-15.456 4.224-15.456 9.44s6.944 9.44 15.456 9.44 15.456-4.224 15.456-9.44-6.912-9.44-15.456-9.44zM16 23.488c-7.168 0-12.96-3.36-12.96-7.488s5.792-7.488 12.96-7.488 12.96 3.36 12.96 7.488-5.792 7.488-12.96 7.488zM11.296 16c0 0.704-0.576 1.28-1.28 1.28-0.672 0-1.248-0.576-1.248-1.28 0-0.672 0.544-1.248 1.248-1.248s1.28 0.544 1.28 1.248zM17.28 16c0 0.704-0.576 1.28-1.28 1.28s-1.28-0.576-1.28-1.28c0-0.704 0.576-1.28 1.28-1.28s1.28 0.576 1.28 1.28zM23.328 16c0 0.704-0.576 1.28-1.28 1.28s-1.248-0.576-1.248-1.28c0-0.704 0.544-1.28 1.248-1.28s1.28 0.576 1.28 1.28z"></path>
</svg>
