<!-- Generated by IcoMoon.io -->
<svg version="1.1" xmlns="http://www.w3.org/2000/svg" width="32" height="32" viewBox="0 0 32 32">
<title>use-case-diagram</title>
<path d="M24.864 20.256c-1.152 0-2.208 0.224-3.104 0.608l-2.624-2.144c-1.792-1.472-4.192-1.952-6.368-1.28l-0.256 0.064c-0.832-0.864-1.824-1.472-2.912-1.792 1.344-0.736 2.304-2.144 2.464-3.776 1.28-2.048 3.52-3.328 5.92-3.328h0.672c0.768 1.984 3.264 3.424 6.208 3.424 3.552 0 6.432-2.112 6.432-4.736s-2.88-4.768-6.432-4.768c-3.296 0-5.984 1.792-6.4 4.128l-1.856 0.128c-1.952 0.128-3.744 1.088-4.96 2.592-0.768-1.6-2.368-2.72-4.224-2.72-2.592 0-4.672 2.144-4.672 4.8 0 1.952 1.12 3.648 2.752 4.384-2.848 1.056-4.928 4.192-4.928 7.84h14.368c0-1.664-0.448-3.232-1.184-4.544 1.856-0.096 3.744 0.544 5.152 1.856l1.024 0.96c-0.96 0.832-1.536 1.888-1.536 3.072 0 2.624 2.88 4.736 6.464 4.736s6.432-2.112 6.432-4.736-2.88-4.768-6.432-4.768zM24.864 4.576c2.304 0 4.192 1.216 4.192 2.72 0 1.472-1.888 2.688-4.224 2.688s-4.192-1.216-4.192-2.688c0-1.504 1.888-2.72 4.224-2.72zM7.424 8.672c1.472 0 2.688 1.248 2.688 2.784 0 0.16-0.032 0.288-0.032 0.448l-0.064 0.096h0.032c-0.256 1.248-1.344 2.208-2.624 2.208-1.504 0-2.688-1.248-2.688-2.752s1.216-2.784 2.688-2.784zM3.008 21.696c0.704-2.24 2.56-3.872 4.736-3.872s4.032 1.632 4.736 3.872h-9.472zM24.832 27.712c-2.304 0-4.192-1.216-4.192-2.688 0-1.504 1.888-2.688 4.224-2.688s4.192 1.184 4.192 2.688c0 1.472-1.888 2.688-4.224 2.688z"></path>
</svg>
