<!-- Generated by IcoMoon.io -->
<svg version="1.1" xmlns="http://www.w3.org/2000/svg" width="32" height="32" viewBox="0 0 32 32">
<title>user-story</title>
<path d="M23.264 18.048v-1.504c0-0.096-0.064-0.16-0.128-0.16h-14.208c-0.096 0-0.16 0.064-0.16 0.16v1.504c0 0.064 0.064 0.128 0.16 0.128h14.208c0.064 0 0.128-0.064 0.128-0.128zM31.072 0.8h-9.184c-0.8-0.544-1.792-0.832-2.848-0.8-0.96 0.032-1.824 0.32-2.528 0.8h-15.744c-0.128 0-0.224 0.096-0.224 0.224v30.112c0 0.128 0.096 0.192 0.224 0.192h30.304c0.128 0 0.224-0.064 0.224-0.192v-30.112c0-0.128-0.096-0.224-0.224-0.224zM21.696 3.968c0.032 1.12-1.088 2.048-2.496 2.048-1.376 0-2.496-0.864-2.528-1.984 0-0.512 0.224-0.96 0.608-1.312 0-0.032 0.032-0.064 0.064-0.096 0 0 0 0 0 0 0.032-0.032 0.064-0.064 0.096-0.064 0 0 0 0 0 0 0.032-0.032 0.064-0.064 0.096-0.096 0 0 0 0 0 0 0.032-0.032 0.064-0.032 0.096-0.064 0 0 0.032 0 0.032 0 0.128-0.096 0.288-0.16 0.448-0.224 0 0 0 0 0 0 0.032-0.032 0.064-0.032 0.096-0.064 0.032 0 0.032 0 0.032 0 0.032 0 0.064 0 0.096-0.032 0.032 0 0.032 0 0.032 0 0.032 0 0.064 0 0.096-0.032 0 0 0.032 0 0.064 0 0 0 0.032-0.032 0.064-0.032s0.032 0 0.064 0 0.032 0 0.064 0 0.032-0.032 0.064-0.032c0.032 0 0.064 0 0.064 0 0.032 0 0.032 0 0.064 0s0.064 0 0.096 0c0 0 0.032 0 0.032 0 0.032 0 0.096-0.032 0.128-0.032 0.064 0 0.096 0 0.16 0 0 0 0.032 0 0.032 0 0.032 0 0.064 0 0.096 0.032 0 0 0.032 0 0.032 0 0.032 0 0.064 0 0.096 0 0 0 0.032 0 0.064 0 0 0.032 0.032 0.032 0.064 0.032s0.032 0 0.064 0 0.032 0 0.064 0 0.032 0.032 0.064 0.032c0.032 0 0.064 0 0.096 0 0 0 0 0.032 0.032 0.032 0.064 0 0.16 0.032 0.256 0.064 0 0 0 0 0 0 0.032 0.032 0.064 0.032 0.096 0.064 0 0 0.032 0 0.032 0 0.032 0 0.064 0.032 0.096 0.032 0 0 0 0 0.032 0.032 0 0 0.064 0 0.064 0.032 0.032 0 0.032 0 0.032 0.032 0.032 0 0.064 0.032 0.096 0.032 0 0 0 0.032 0 0.032 0.032 0 0.064 0.032 0.096 0.032 0 0 0 0 0.032 0 0.096 0.096 0.192 0.16 0.256 0.256v0c0.352 0.352 0.576 0.8 0.576 1.28zM15.168 5.984c0.256 0.512 0.672 0.992 1.184 1.344l-2.144 0.608 0.96-1.952zM29.376 29.28c0 0.096-0.064 0.16-0.128 0.16h-26.592c-0.064 0-0.128-0.064-0.128-0.16v-26.432c0-0.064 0.064-0.128 0.128-0.128h12.288c-0.032 0.096-0.064 0.192-0.096 0.288l-4.032 8.064 9.056-2.912c2.208-0.32 3.872-2.112 3.808-4.224-0.032-0.416-0.128-0.832-0.256-1.216h5.824c0.064 0 0.128 0.032 0.128 0.128v26.432zM23.424 22.56h-14.24c-0.064 0-0.128 0.064-0.128 0.128v1.504c0 0.064 0.064 0.128 0.128 0.128h14.24c0.064 0 0.128-0.064 0.128-0.128v-1.504c0-0.064-0.064-0.128-0.128-0.128z"></path>
</svg>
