<svg id="Layer_1" data-name="Layer 1" xmlns="http://www.w3.org/2000/svg" viewBox="0 0 330.27 56.31">
    <defs>
        <style>.cls-1{fill:#fff;}</style>
    </defs>
    <title>Artboard 1</title>
    <path class="cls-1"
          d="M67.86,34.45a16.27,16.27,0,0,0,10.7,4.44c4.11,0,6.2-1.5,6.2-3.85,0-2.74-3.33-3.72-7.18-4.57C72.16,29.3,65.7,27.86,65.7,20.81c0-5.15,4.44-9.59,12.4-9.59a18,18,0,0,1,12.27,4.44L87.5,20.49a12.71,12.71,0,0,0-9.33-3.78c-3.59,0-5.87,1.3-5.87,3.52,0,2.41,3.13,3.26,6.85,4.11,5.48,1.17,12.2,2.74,12.2,10.18,0,5.55-4.63,9.79-13.11,9.79-5.35,0-10.24-1.7-13.51-4.89Z"/>
    <path class="cls-1"
          d="M98,36.21V18H92.78V12H98V3.39h6.85V12h6.39v6h-6.39V34.52c0,2.15,1,3.72,3,3.72a4.42,4.42,0,0,0,3.07-1.11l1.63,5.16c-1.24,1.17-3.26,2-6.46,2C100.8,44.3,98,41.43,98,36.21Z"/>
    <path class="cls-1"
          d="M112.21,27.73c0-9,6.2-16.51,16.18-16.51s16.25,7.5,16.25,16.51S138.51,44.3,128.4,44.3,112.21,36.8,112.21,27.73Zm25.32,0c0-5.55-3.26-10.44-9.13-10.44s-9.07,4.89-9.07,10.44,3.26,10.51,9.07,10.51S137.53,33.34,137.53,27.73Z"/>
    <path class="cls-1"
          d="M147.47,12h6.85v4.63a13.46,13.46,0,0,1,10.24-5.35v6.79a10.07,10.07,0,0,0-2.15-.2c-2.87,0-6.72,2-8.09,4.18V43.52h-6.85Z"/>
    <path class="cls-1"
          d="M174,50.24c2.15,0,3.59-.65,4.5-2.74l1.57-3.59L167.18,12h7.31l9.2,23.62L192.89,12h7.37L185.06,49.2c-2.15,5.35-5.94,7-10.83,7.11a19.37,19.37,0,0,1-3.85-.46l1-6.13A7.16,7.16,0,0,0,174,50.24Z"/>
    <path class="cls-1"
          d="M207.57,36.21V18h-5.22V12h5.22V3.39h6.85V12h6.39v6h-6.39V34.52c0,2.15,1,3.72,3,3.72a4.42,4.42,0,0,0,3.07-1.11l1.63,5.16c-1.24,1.17-3.26,2-6.46,2C210.38,44.3,207.57,41.43,207.57,36.21Z"/>
    <path class="cls-1"
          d="M237.78,11.22c9.46,0,15.53,7.24,15.53,17.16V30H229c.52,4.76,4.11,8.68,10,8.68A13.34,13.34,0,0,0,248,35.23l3.13,4.5c-3.13,3-7.76,4.57-12.79,4.57-9.46,0-16.51-6.59-16.51-16.57C221.79,18.6,228.45,11.22,237.78,11.22Zm-8.87,14h17.75a8.43,8.43,0,0,0-8.87-8.35C231.9,16.83,229.23,21.34,228.9,25.19Z"/>
    <path class="cls-1" d="M256.82,0h6.85V43.52h-6.85Z"/>
    <path class="cls-1" d="M268.46,0h6.85V43.52h-6.85Z"/>
    <path class="cls-1"
          d="M294.13,11.22c9.46,0,15.53,7.24,15.53,17.16V30H285.32c.52,4.76,4.11,8.68,10,8.68a13.34,13.34,0,0,0,8.94-3.46l3.13,4.5c-3.13,3-7.76,4.57-12.79,4.57-9.46,0-16.51-6.59-16.51-16.57C278.14,18.6,284.8,11.22,294.13,11.22Zm-8.87,14H303a8.43,8.43,0,0,0-8.87-8.35C288.26,16.83,285.58,21.34,285.25,25.19Z"/>
    <path class="cls-1"
          d="M313.18,12H320v4.63a13.46,13.46,0,0,1,10.24-5.35v6.79a10.08,10.08,0,0,0-2.15-.2c-2.87,0-6.72,2-8.09,4.18V43.52h-6.85Z"/>
    <polygon class="cls-1"
             points="31.4 23.16 13.66 14.74 25.16 9.74 43.76 17.71 43.76 17.71 43.76 17.71 59.23 10.78 43.76 11.61 25.12 3.2 0 14 25.12 26.12 31.4 23.16"/>
    <polygon class="cls-1" points="50.11 28.01 43.87 25.36 25.12 33.59 0 21.77 0 28.25 25.16 39.95 50.11 28.01"/>
    <polygon class="cls-1"
             points="43.69 38.02 25.12 46.45 0 35.32 0 41.21 25.12 53.15 51.04 41.14 51.04 41.14 43.69 38.02"/>
</svg>
