<?xml version="1.0" encoding="utf-8"?>
<!-- Generator: Adobe Illustrator 19.2.1, SVG Export Plug-In . SVG Version: 6.00 Build 0)  -->
<svg version="1.1" id="Layer_1" xmlns="http://www.w3.org/2000/svg" xmlns:xlink="http://www.w3.org/1999/xlink"  x="0px" y="0px"
	 viewBox="0 0 25 25" style="enable-background:new 0 0 25 25;" xml:space="preserve">
<style type="text/css">
	.st0{fill:#ABABAB;}
	.st1{fill:#FFFFFF;}
</style>
<path class="st0" d="M12.6,1C19.1,1,24,6.1,24,12.5S19,24,12.6,24S1,19,1,12.5S6.2,1,12.6,1z"/>
<path class="st1" d="M8.2,11.1v2.8c0,0.3-0.2,0.5-0.5,0.5H4.9c-0.3,0-0.5-0.2-0.5-0.5v-2.8c0-0.3,0.2-0.5,0.5-0.5h2.8
	C8,10.6,8.2,10.8,8.2,11.1z"/>
<path class="st1" d="M14.4,11.1v2.8c0,0.3-0.2,0.5-0.5,0.5h-2.8c-0.3,0-0.5-0.2-0.5-0.5v-2.8c0-0.3,0.2-0.5,0.5-0.5H14
	C14.2,10.6,14.4,10.8,14.4,11.1z"/>
<path class="st1" d="M20.7,11.1v2.8c0,0.3-0.2,0.5-0.5,0.5h-2.8c-0.3,0-0.5-0.2-0.5-0.5v-2.8c0-0.3,0.2-0.5,0.5-0.5h2.8
	C20.5,10.6,20.7,10.8,20.7,11.1z"/>
</svg>
