<?xml version="1.0" encoding="utf-8"?>
<!-- Generator: Adobe Illustrator 19.2.1, SVG Export Plug-In . SVG Version: 6.00 Build 0)  -->
<svg version="1.1" id="Capa_1" xmlns="http://www.w3.org/2000/svg" xmlns:xlink="http://www.w3.org/1999/xlink"  x="0px" y="0px"
	 viewBox="0 0 511.6 511.6" style="enable-background:new 0 0 511.6 511.6;" xml:space="preserve">
<style type="text/css">
	.st0{fill:#DCDFE5;}
</style>
<g>
	<g>
		<path class="st0" d="M300.1,325.4c30.3-12.8,54.2-30.1,71.7-52.1c17.5-22,26.3-45.9,26.3-71.8c0-25.9-8.8-49.8-26.3-71.8
			c-17.5-22-41.4-39.4-71.7-52.1c-30.3-12.8-63.2-19.1-98.8-19.1c-35.6,0-68.5,6.4-98.8,19.1c-30.3,12.8-54.2,30.1-71.7,52.1
			c-17.5,22-26.3,45.9-26.3,71.8c0,22.2,6.6,43,19.8,62.6c13.2,19.6,31.4,36.1,54.5,49.5c-1.9,4.5-3.8,8.6-5.7,12.3
			c-2,3.7-4.3,7.3-7,10.8c-2.7,3.5-4.8,6.1-6.3,8.1c-1.5,2-3.9,4.7-7.3,8.2c-3.4,3.5-5.5,5.9-6.4,7c0-0.2-0.4,0.2-1.1,1.3
			c-0.7,1-1.2,1.5-1.3,1.4c-0.1-0.1-0.5,0.4-1.1,1.4c-0.7,1-1,1.5-1,1.5l-0.7,1.4c-0.3,0.6-0.5,1.1-0.6,1.7
			c-0.1,0.6-0.1,1.2-0.1,1.8s0.1,1.3,0.3,1.8c0.4,2.4,1.4,4.4,3.2,5.9c1.8,1.5,3.7,2.2,5.7,2.2h0.8c9.3-1.3,17.3-2.8,24-4.5
			c28.7-7.5,54.6-19.4,77.7-35.8c16.8,3,33.2,4.5,49.2,4.5C236.9,344.5,269.8,338.1,300.1,325.4z M143.7,302.1l-12.3,8.7
			c-5.2,3.5-11,7.2-17.3,10.9l9.8-23.5l-27.1-15.6c-17.9-10.4-31.8-22.7-41.6-36.9c-9.9-14.2-14.8-28.9-14.8-44.2
			c0-19,7.3-36.8,21.9-53.4c14.6-16.6,34.3-29.7,59.1-39.4c24.8-9.7,51.4-14.5,79.9-14.5s55.1,4.8,79.9,14.5
			c24.8,9.7,44.5,22.8,59.1,39.4c14.6,16.6,21.9,34.4,21.9,53.4c0,19-7.3,36.8-21.9,53.4c-14.6,16.6-34.3,29.7-59.1,39.4
			c-24.8,9.7-51.4,14.5-79.9,14.5c-14,0-28.2-1.3-42.8-3.9L143.7,302.1z"/>
		<path class="st0" d="M485.5,335.7c13.2-19.5,19.8-40.4,19.8-62.7c0-22.9-7-44.3-21-64.3c-14-19.9-33-36.5-57-49.7
			c4.3,14,6.4,28.1,6.4,42.5c0,25-6.2,48.6-18.7,71c-12.5,22.4-30.4,42.1-53.7,59.2c-21.6,15.6-46.2,27.7-73.8,36
			c-27.6,8.4-56.4,12.6-86.3,12.6c-5.6,0-13.8-0.4-24.6-1.1c37.4,24.6,81.4,36.9,131.9,36.9c16,0,32.4-1.5,49.2-4.5
			c23.1,16.4,49,28.3,77.7,35.8c6.7,1.7,14.7,3.2,24,4.5c2.2,0.2,4.3-0.5,6.1-2c1.9-1.5,3.1-3.5,3.6-6.1c-0.1-1.1,0-1.7,0.3-1.8
			c0.3-0.1,0.2-0.7-0.1-1.8c-0.4-1.1-0.6-1.7-0.6-1.7l-0.7-1.4c-0.2-0.4-0.5-0.9-1-1.5c-0.5-0.6-0.8-1.1-1.1-1.4
			c-0.3-0.3-0.7-0.7-1.3-1.4c-0.6-0.6-0.9-1.1-1.1-1.3c-0.9-1.1-3.1-3.4-6.4-7c-3.4-3.5-5.8-6.3-7.3-8.2c-1.5-2-3.6-4.7-6.3-8.1
			c-2.7-3.4-5-7-7-10.8c-2-3.7-3.9-7.8-5.7-12.3C454.1,371.6,472.2,355.2,485.5,335.7z"/>
	</g>
</g>
</svg>
