<?xml version="1.0" encoding="utf-8"?>
<!-- Generator: Adobe Illustrator 18.1.1, SVG Export Plug-In . SVG Version: 6.00 Build 0)  -->
<svg version="1.1" id="Capa_1" xmlns="http://www.w3.org/2000/svg" xmlns:xlink="http://www.w3.org/1999/xlink"  x="0px" y="0px"
	 viewBox="-6 8.8 485.2 485.2" enable-background="new -6 8.8 485.2 485.2" xml:space="preserve">
<path fill="#F2F2F2" stroke="#C5C5C5" stroke-width="3" stroke-miterlimit="10" d="M476.1,252.5c0,133.4-106.1,239.5-239.5,239.5
	S-3,385.9-3,252.5C-3,119.1,103.1,11.8,236.5,11.8S476.1,119.1,476.1,252.5z"/>
<g>
	<path fill="#C5C5C5" d="M350.4,306.6h-22.8c-25.1,0-45.5-20.4-45.5-45.5v-14.6c10.1-12,17.3-26.1,21.8-41.1
		c0.5-2.5,2.9-3.8,4.5-5.5c8.7-8.7,10.4-23.4,3.9-33.9c-0.9-1.6-2.5-3-2.4-4.9c0-13.3,0.1-26.7,0-40c-0.4-16.1-5-32.8-16.2-44.8
		c-9.1-9.6-21.6-15.4-34.5-17.8c-16.3-3.1-33.4-3-49.5,1.2c-14,3.5-27.1,11.7-35.3,23.9c-7.2,10.6-10.4,23.4-10.9,36
		c-0.2,13.6,0,27.2-0.1,40.8c0.3,2.7-2,4.6-3,6.8c-6.2,11.2-3.4,26.4,6.4,34.5c2.5,1.7,3,4.9,3.9,7.6c4.3,13.4,11.5,25.9,20.5,36.7
		v15.1c0,25.1-20.4,45.5-45.5,45.5h-22.8c0,0-41.2,11.4-68.3,68.2v22.8c0,12.6,10.2,22.7,22.8,22.7h318.5
		c12.6,0,22.7-10.2,22.7-22.7v-22.8C391.6,318,350.4,306.6,350.4,306.6z"/>
</g>
</svg>
