<?xml version="1.0" encoding="utf-8"?>
<!-- Generator: Adobe Illustrator 18.1.1, SVG Export Plug-In . SVG Version: 6.00 Build 0)  -->
<svg version="1.1" id="Capa_1" xmlns="http://www.w3.org/2000/svg" xmlns:xlink="http://www.w3.org/1999/xlink"  x="0px" y="0px"
	 viewBox="0 0 500 500" enable-background="new 0 0 500 500" xml:space="preserve">
<g>
	<g>
		<path fill="#0092d9" d="M437.5,109.4V46.9H0v343.8c0,0,0,62.5,62.5,62.5h390.6c0,0,46.9-1,46.9-62.5V109.4H437.5z M62.5,421.9
			c-31.2,0-31.2-31.2-31.2-31.2V78.1h375v312.5c0,14.4,4.4,24.4,10.6,31.2H62.5z"/>
		<rect x="62.5" y="140.6" fill="#0092d9" width="312.5" height="31.2"/>
		<rect x="234.4" y="328.1" fill="#0092d9" width="109.4" height="31.2"/>
		<rect x="234.4" y="265.6" fill="#0092d9" width="140.6" height="31.2"/>
		<rect x="234.4" y="203.1" fill="#0092d9" width="140.6" height="31.2"/>
		<rect x="62.5" y="203.1" fill="#0092d9" width="140.6" height="156.2"/>
	</g>
</g>
</svg>
