<svg id="Layer_1" data-name="Layer 1" xmlns="http://www.w3.org/2000/svg" viewBox="0 0 512 512">
    <defs>
        <style>.cls-1{fill:#008d45;}.cls-2{fill:#fff;}</style>
    </defs>
    <title>document</title>
    <g id="CjKkOE.tif">
        <path class="cls-1"
              d="M0,512V.09H511.85V512Zm287.4-139.39L366.36,272.4,342.85,254,264,354.13Zm86.49-109.77c4-5.09,7.71-9.52,11-14.23,2.38-3.38,1.41-6.71-1.67-9.26-4-3.28-8-6.46-12.1-9.57-2.81-2.14-6.14-2.69-8.62,0-4.24,4.53-8,9.54-12.16,14.66ZM263.82,357.5c-5.55,10-4.58,14,4.68,20.87,3.39,2.51,10.47.36,15.58-5ZM344.71,252c7.32,5.74,14.27,11.32,21.43,16.64.71.52,3.12-.16,3.83-1s.88-3.41.24-4c-6.86-5.7-13.93-11.15-21.35-17ZM256.9,387.49l11.65-5.6L259.48,375c-.72,2.62-1.57,5.78-1.57,5.78S257.37,384.24,256.9,387.49Z"/>
        <path class="cls-2"
              d="M153.33,337.29c-7.5,0-14.15.05-20.8,0-7.69-.08-11-3.22-11.11-10.32-.1-7.73,2.9-11,10.65-11.29,5.66-.19,11.33-.18,17,0,3.21.07,4.39-1.09,4.31-4.38-.19-8.16-.17-16.33,0-24.5.06-3.11-1.11-4.08-4.08-4-6.16.15-12.33.12-18.5,0-6.42-.11-9.36-3.41-9.38-10.25s2.92-10.36,9.19-10.49c7.3-.15,14.61,0,22.72,0,0-8.21,0-16,0-23.73,0-10,0-10-10-10-4.17,0-8.34.15-12.5-.08-6.47-.37-9.42-4-9.37-11,0-6.72,2.93-10.16,9.39-10.39,7.29-.26,14.6-.06,22.2-.06V173.4c-6.74,0-13.49,0-20.24,0-8.36-.05-11.59-3.36-11.35-11.55.18-6.21,3.4-9.58,9.63-9.7,7.15-.14,14.3,0,22.27,0,0-5.76,0-11.18,0-16.61,0-9.55,3.3-12.94,13-13q49-.08,98,0,36.5,0,73,0c11.39,0,14.41,3.12,14.41,14.65,0,29.5.11,59-.15,88.49a17.41,17.41,0,0,1-3.36,9.89q-43.37,55.56-87.27,110.69c-4.26,5.33-5.63,11.16-6.7,17.32-.6,3.48-2.1,4.71-5.6,4.7-27.83-.1-55.66,0-83.49-.1-8.08,0-11.73-4-11.78-12.18C153.3,350,153.33,344.08,153.33,337.29Zm21.31-54.18a10.74,10.74,0,1,0-10.78-10.66A10.7,10.7,0,0,0,174.63,283.11Zm0,32.48a10.74,10.74,0,0,0-.15,21.48,10.74,10.74,0,1,0,.15-21.48Zm-.22-142.26a10.53,10.53,0,0,0,10.91-10.47,10.75,10.75,0,1,0-21.5-.28A10.46,10.46,0,0,0,174.45,173.34Zm.35,54.72a10.76,10.76,0,0,0,10.56-11,10.76,10.76,0,0,0-21.51.41A10.71,10.71,0,0,0,174.8,228.05Z"/>
        <path class="cls-2"
              d="M351.17,352.92c0,9.59-3.68,13.31-13.29,13.35-14.5.07-31.64-.3-34.37-.59,19.5-28.61,28.92-39.91,49-65.42C353,300.43,351.19,333.08,351.17,352.92Z"/>
    </g>
</svg>
