<svg id="Layer_1" data-name="Layer 1" xmlns="http://www.w3.org/2000/svg" viewBox="0 0 512 512">
    <defs>
        <style>.cls-1{fill:#295796;}.cls-2{fill:#fff;}</style>
    </defs>
    <title>Artboard 1</title>
    <g id="LK9OIP.tif">
        <path class="cls-1"
              d="M0,512.46Q0,256.54,0,.54H512V512.46c-2-.12-4-.34-6-.34q-250,0-500.09,0C4,512.12,2,512.34,0,512.46ZM276.58,389.93a44.82,44.82,0,0,0,.53-4.56q0-28.49,0-57,0-100.22.05-200.44c0-4-.23-6-5.45-5q-75.56,14-151.23,27.38c-3.68.66-4.77,2.25-4.77,5.95q.16,99.72,0,199.44c0,3.78.86,5.46,5,6.2,45.19,8.05,90.34,16.36,135.51,24.57C262.91,387.66,269.58,388.73,276.58,389.93Zm92.9-61.84H363c-24.83,0-49.65.06-74.48-.06-3.62,0-5.08.94-4.92,4.77.27,6.49.29,13,0,19.49-.19,4.17,1.25,5.42,5.39,5.4q51-.21,102,0c4.26,0,5.32-1.44,5.28-5.48-.18-18.66-.08-37.32-.08-56q0-68,0-136c0-3.07.47-5.93-4.3-5.91q-52,.19-104,0c-3.29,0-4.36,1.31-4.26,4.49.18,5.83.31,11.68,0,17.49-.26,4.36,1.08,5.72,5.56,5.68,23.83-.21,47.65-.1,71.48-.1,9.75,0,9.75,0,8.85,9.93,0,.29-.32.55-.8,1.34H294.14c-10.51,0-10.27,0-10.55,10.67-.12,4.71,1.46,5.92,6,5.89,24.66-.18,49.32-.09,74-.09h5.87c.15,1.77.29,2.74.31,3.72.18,7.14.17,7.15-6.89,7.16H323.33c-11.5,0-23,.09-34.49,0-3.73,0-5.76,1-5.17,5.12a11.93,11.93,0,0,1,0,3.49c-.77,5,1.12,6.59,6.29,6.53,24.49-.26,49-.12,73.48-.11,1.94,0,3.88.17,5.92.26v10.64h-6.28c-23.16,0-46.32,0-69.48,0-11.59,0-9.47-1.12-10,9.75-.24,5,1.56,6.22,6.23,6.19,23.66-.18,47.32-.08,71-.08,9.67,0,9.68,0,8.67,9.65,0,.28-.35.53-.85,1.27H294.55c-10.91,0-10.64,0-11,10.79-.16,5.06,1.7,6,6.3,6,24.49-.2,49-.1,73.48-.08,2,0,3.9.19,6,.3v10.95h-5.84c-23.33,0-46.66-.06-70,0-11.3,0-9.43-1.58-9.89,9.76-.18,4.6,1.24,5.94,5.86,5.9,24.66-.21,49.32-.1,74-.1h6Z"/>
        <path class="cls-2"
              d="M276.58,390.13c-7-1.2-13.68-2.27-20.33-3.48-45.17-8.21-90.31-16.52-135.51-24.57-4.14-.74-5-2.42-5-6.2q.13-99.72,0-199.44c0-3.7,1.09-5.29,4.77-5.95Q196.15,137,271.74,123.11c5.22-1,5.45,1,5.45,5q-.1,100.22-.05,200.44,0,28.49,0,57A44.82,44.82,0,0,1,276.58,390.13ZM250.07,207c-5,.27-9.28.76-13.53.65-3.67-.09-4.8,1.55-5.34,4.89-2.93,18.07-6.05,36.11-9.14,54.16-.89,5.24-1.87,10.46-2.81,15.69l-.81-.18L204,210c-5,0-9.21.13-13.36,0-3.41-.14-4.95,1.07-5.66,4.62-2.71,13.54-5.81,27-8.74,40.51-1.91,8.81-3.78,17.63-5.67,26.44a5.13,5.13,0,0,1-1.65-3.12c-3.4-21-6.73-42.06-10.28-63.06-.21-1.26-2.07-3.16-3.21-3.19-4.27-.11-8.55.44-13.38.78,1.81,8.9,3.49,17.17,5.18,25.45q6.08,29.84,12.19,59.68c.45,2.16.47,4.81,3.91,4.74,5-.1,9.94,0,15.53,0l14.78-69a18.17,18.17,0,0,1,1.31,2.75c4.29,21.19,8.52,42.4,12.91,63.57.34,1.62,1.73,4.13,2.88,4.27,5.58.69,11.24.72,17.26,1Z"/>
        <path class="cls-2"
              d="M369.49,328.09V316.77h-6c-24.66,0-49.32-.11-74,.1-4.62,0-6-1.3-5.86-5.9.45-11.34-1.41-9.72,9.89-9.76,23.33-.08,46.66,0,70,0h5.84V290.24c-2.05-.11-4-.3-6-.3-24.49,0-49-.12-73.48.08-4.6,0-6.46-.92-6.3-6,.34-10.78.06-10.79,11-10.79h74.07c.51-.73.82-1,.85-1.27,1-9.65,1-9.65-8.67-9.65-23.66,0-47.32-.1-71,.08-4.67,0-6.47-1.22-6.23-6.19.53-10.87-1.59-9.73,10-9.75,23.16-.05,46.32,0,69.48,0h6.28V235.8c-2-.09-4-.26-5.92-.26-24.49,0-49-.16-73.48.11-5.17.06-7.06-1.53-6.29-6.53a11.93,11.93,0,0,0,0-3.49c-.6-4.11,1.44-5.16,5.17-5.12,11.5.13,23,0,34.49,0h39.49c7.06,0,7.07,0,6.89-7.16,0-1-.16-2-.31-3.72h-5.87c-24.66,0-49.32-.1-74,.09-4.51,0-6.09-1.18-6-5.89.28-10.66,0-10.67,10.55-10.67H368.7c.48-.79.78-1,.8-1.34.9-9.93.9-9.93-8.85-9.93-23.83,0-47.66-.11-71.48.1-4.48,0-5.82-1.32-5.56-5.68.35-5.81.21-11.66,0-17.49-.1-3.18,1-4.5,4.26-4.49q52,.1,104,0c4.77,0,4.31,2.84,4.3,5.91q0,68,0,136c0,18.66-.1,37.33.08,56,0,4-1,5.5-5.28,5.48q-51-.22-102,0c-4.13,0-5.58-1.23-5.39-5.4.3-6.48.28-13,0-19.49-.16-3.83,1.3-4.79,4.92-4.77,24.83.13,49.65.06,74.48.06Z"/>
        <path class="cls-1"
              d="M250.07,206.78,228,305.15c-6-.28-11.68-.31-17.26-1-1.15-.14-2.55-2.65-2.88-4.27-4.4-21.17-8.62-42.37-12.91-63.57a18.17,18.17,0,0,0-1.31-2.75l-14.78,69c-5.58,0-10.56-.07-15.53,0-3.44.07-3.46-2.58-3.91-4.74q-6.15-29.83-12.19-59.68c-1.69-8.27-3.37-16.55-5.18-25.45,4.83-.34,9.11-.88,13.38-.78,1.13,0,3,1.93,3.21,3.19,3.54,21,6.88,42,10.28,63.06a5.13,5.13,0,0,0,1.65,3.12c1.89-8.81,3.76-17.63,5.67-26.44,2.93-13.5,6-27,8.74-40.51.71-3.55,2.25-4.76,5.66-4.62,4.15.17,8.31,0,13.36,0L218.43,282l.81.18c.94-5.23,1.92-10.45,2.81-15.69,3.08-18,6.2-36.09,9.14-54.16.54-3.34,1.67-5,5.34-4.89C240.79,207.54,245.05,207.05,250.07,206.78Z"/>
    </g>
</svg>
