<?xml version="1.0" encoding="utf-8"?>
<!-- Generator: Adobe Illustrator 20.0.0, SVG Export Plug-In . SVG Version: 6.00 Build 0)  -->
<svg version="1.1" id="Capa_1" xmlns="http://www.w3.org/2000/svg" xmlns:xlink="http://www.w3.org/1999/xlink" x="0px" y="0px"
	 viewBox="0 0 438.5 438.5" style="enable-background:new 0 0 438.5 438.5;" xml:space="preserve">
<style type="text/css">
	.st0{fill:#009CDC;}
</style>
<g>
	<path class="st0" d="M258.1,279.7c26.1-11,46.6-25.9,61.7-44.8s22.6-39.5,22.6-61.8s-7.5-42.9-22.6-61.8s-35.6-33.9-61.7-44.9
		s-54.4-16.5-85-16.5s-59,5.5-85,16.5s-46.6,25.9-61.7,44.8S3.8,150.7,3.8,173c0,19.1,5.7,37,17.1,53.9c11.4,16.8,27,31,46.9,42.6
		c-1.6,3.9-3.2,7.4-4.9,10.6c-1.7,3.2-3.7,6.3-6,9.3s-4.1,5.3-5.4,7c-1.3,1.7-3.4,4.1-6.3,7.1c-2.9,3-4.7,5.1-5.5,6
		c0-0.2-0.3,0.2-1,1.1c-0.6,0.9-1,1.3-1.1,1.2c-0.1-0.1-0.4,0.3-1,1.2c-0.6,0.9-0.8,1.3-0.8,1.3l-0.6,1.2c-0.2,0.5-0.4,1-0.5,1.4
		c-0.1,0.5-0.1,1-0.1,1.6s0.1,1.1,0.2,1.6c0.3,2.1,1.2,3.8,2.8,5.1c1.5,1.3,3.2,1.9,4.9,1.9h0.7c8-1.1,14.9-2.4,20.7-3.8
		c24.7-6.4,47-16.7,66.9-30.8c14.4,2.6,28.5,3.8,42.3,3.8C203.7,296.2,232,290.7,258.1,279.7z M123.5,259.6l-10.6,7.5
		c-4.5,3-9.5,6.2-14.9,9.4l8.4-20.2l-23.3-13.5c-15.4-9-27.3-19.6-35.8-31.7c-8.5-12.2-12.7-24.8-12.7-38c0-16.4,6.3-31.7,18.9-45.9
		c12.5-14.3,29.5-25.6,50.8-34c21.3-8.3,44.2-12.5,68.8-12.5c24.5,0,47.5,4.2,68.8,12.5s38.3,19.6,50.9,33.9s18.9,29.6,18.9,45.9
		c0,16.4-6.3,31.7-18.9,45.9c-12.6,14.3-29.5,25.6-50.9,33.9c-21.3,8.3-44.2,12.5-68.8,12.5c-12,0-24.3-1.1-36.8-3.4L123.5,259.6z"
		/>
	<path class="st0" d="M417.6,288.6c11.4-16.8,17.1-34.7,17.1-54c0-19.7-6-38.2-18-55.3c-12-17.2-28.4-31.4-49.1-42.8
		c3.7,12,5.5,24.2,5.5,36.6c0,21.5-5.4,41.8-16.1,61.1c-10.7,19.2-26.1,36.2-46.2,51c-18.6,13.5-39.8,23.8-63.5,31
		S198.8,327,173,327c-4.8,0-11.9-0.3-21.2-1c32.2,21.2,70.1,31.7,113.5,31.7c13.8,0,27.9-1.3,42.3-3.9
		c19.9,14.1,42.2,24.4,66.9,30.8c5.8,1.4,12.7,2.7,20.7,3.8c1.9,0.2,3.7-0.4,5.3-1.7c1.6-1.3,2.6-3,3.1-5.3c-0.1-1,0-1.5,0.2-1.6
		s0.2-0.6-0.1-1.6c-0.3-1-0.5-1.4-0.5-1.4l-0.6-1.2c-0.2-0.3-0.4-0.8-0.8-1.3c-0.4-0.6-0.7-1-1-1.2c-0.2-0.2-0.6-0.6-1.1-1.2
		s-0.8-0.9-1-1.1c-0.8-1-2.6-3-5.5-6s-5-5.4-6.3-7.1s-3.1-4-5.4-7s-4.3-6.1-6-9.3c-1.7-3.2-3.3-6.7-4.9-10.6
		C390.6,319.5,406.3,305.4,417.6,288.6z"/>
</g>
</svg>
