<?xml version="1.0" encoding="utf-8"?>
<!-- Generator: Adobe Illustrator 20.0.0, SVG Export Plug-In . SVG Version: 6.00 Build 0)  -->
<svg version="1.1" id="Capa_1" xmlns="http://www.w3.org/2000/svg" xmlns:xlink="http://www.w3.org/1999/xlink" x="0px" y="0px"
	 viewBox="0 0 438.5 438.5" style="enable-background:new 0 0 438.5 438.5;" xml:space="preserve">
<style type="text/css">
	.st0{fill:#009CDC;}
</style>
<path class="st0" d="M383.9,227.7c-2.8-2.8-7.4-2.3-10.3,0.6v36.5h-99.5l-44.8-44.9l44.8-44.7h99.5v35.5c2.8,2.8,7.4,2.6,10.3-0.2
	l51.4-51.4c2.8-2.8,2.8-7.6,0-10.4L384,97.2c-2.8-2.8-7.4-2.4-10.3,0.4v30.3H259.4c-0.3,0-0.6-0.4-0.8-0.4c-2.2-0.3-4.5,0.2-6.2,1.9
	l-56.7,56.7l-53.4-53.5c-1.1-2.6-3.7-4.7-6.7-4.7H6.5c-2.9,0-5.4,2.7-5.4,6.7v32.7c0,4,2.5,7.9,5.4,7.9h111.8l44.3,44.2l-44.3,44.2
	H6.5c-2.9,0-5.4,3.1-5.4,7.1v32.7c0,4,2.5,7.4,5.4,7.4h129.1c3,0,5.6-1.5,6.7-4.1l53.9-53.8l56.3,56.1c1.7,1.7,4,2.7,6.2,2.4
	c0.3,0.1,0.6,0.5,0.8,0.5h114.2v29.3c2.8,2.8,7.4,2.5,10.3-0.3l51.3-51.5c2.8-2.8,2.8-7.6,0-10.4L383.9,227.7z"/>
</svg>
