<svg id="Layer_1" data-name="Layer 1" xmlns="http://www.w3.org/2000/svg" viewBox="0 0 512 512">
    <defs>
        <style>.cls-1{fill:#1e7145;}.cls-2{fill:#fff;}</style>
    </defs>
    <title>ms-excel</title>
    <g id="qztbh8.tif">
        <path class="cls-1"
              d="M0,512V.09H511.85V512ZM275.17,391.48V119.75c-2.31.26-4.28.36-6.2.71Q194,134.06,119.08,147.62c-4.06.73-5.42,2-5.41,6.33q.22,101.73,0,203.45c0,3.85.92,5.42,5,6.15,48.51,8.69,97,17.6,145.46,26.42C267.67,390.61,271.26,391,275.17,391.48ZM325.46,195c-12.56,0-24.54.12-36.52-.07-3.83-.06-5.74.62-5.69,5.1,0,4.18,1.34,5.42,5.46,5.3,9.15-.28,18.32-.09,27.49-.09h9.2v26.07h-34.7c-8,0-8.45.54-6.44,9.27h41.16v25.77c-1.89.09-3.51.24-5.13.25-10.5,0-21,.09-31.49,0-3.41,0-5.57.18-5.55,4.66s1.6,5.45,5.57,5.16,8-.06,12-.06h24.47v26.47c-12.74,0-25.07.11-37.38-.07-3.53-.05-4.92,1.15-4.52,4.59.17,1.45.23,2.92.39,5h41.61V338c-1.75.13-3.22.32-4.68.33-11,0-22,.1-33,0-3.18,0-4.56.93-4.38,4.26a85,85,0,0,1,0,11.49c-.34,4.22,1.31,5.3,5.4,5.29,34.82-.15,69.64-.08,104.46-.1,1.58,0,3.17-.2,4.79-.3.1-1.75.23-2.91.23-4.06q0-99.46.1-198.93c0-4.07-1.32-5-5.14-5-30.32.13-60.64.07-91,.07-5,0-10-.18-15,.13-1.31.08-3.53,1.64-3.61,2.65-.38,4.91-.17,9.87-.17,15.47h42Z"/>
        <path class="cls-2"
              d="M275.17,391.48c-3.9-.53-7.5-.87-11-1.52-48.48-8.82-96.95-17.73-145.46-26.42-4-.72-5-2.3-5-6.15q.16-101.73,0-203.45c0-4.28,1.35-5.6,5.41-6.33q75-13.42,149.89-27.16c1.92-.35,3.88-.45,6.2-.71Zm-82.5-149.14c-4.19-10.42-8.1-20.29-12.15-30.11-.59-1.42-1.79-3.73-2.67-3.71-6,.12-12.06.74-18.67,1.25,6.85,14,13.21,27.18,19.75,40.27a7.63,7.63,0,0,1-.11,7.9c-6.53,12-12.84,24.08-19.22,36.15-.72,1.37-1.33,2.8-2.15,4.56,2.25.11,3.74.19,5.23.25,4.47.17,10,2,13.11,0,3.34-2.13,4.46-7.81,6.4-12,3.28-7.13,6.45-14.32,9.72-21.62,4.89,11.1,9.56,21.86,14.42,32.54.67,1.48,2.13,3.51,3.4,3.65,6.48.7,13,.86,20.29,1.25-8.26-15.6-16-30.47-24-45.24-1.5-2.78-1.63-5-.09-7.82,7-13.05,13.78-26.23,20.62-39.36.81-1.55,1.52-3.14,2.63-5.44-5.9.42-10.87,1.06-15.83,1-3.77,0-5.59,1.55-7,4.87C202,221.14,197.43,231.4,192.67,242.34Z"/>
        <path class="cls-2"
              d="M325.46,195V169.27h-42c0-5.6-.21-10.56.17-15.47.08-1,2.3-2.57,3.61-2.65,5-.32,10-.13,15-.13,30.32,0,60.65.06,91-.07,3.82,0,5.14.93,5.14,5q-.19,99.46-.1,198.93c0,1.15-.13,2.31-.23,4.06-1.63.11-3.21.3-4.79.3-34.82,0-69.64,0-104.46.1-4.09,0-5.74-1.07-5.4-5.29a85,85,0,0,0,0-11.49c-.18-3.33,1.2-4.3,4.38-4.26,11,.13,22,.06,33,0,1.46,0,2.92-.2,4.68-.33v-25.7H283.78c-.16-2.09-.22-3.56-.39-5-.41-3.45,1-4.64,4.52-4.59,12.32.18,24.64.07,37.38.07V276.32H300.81c-4,0-8-.23-12,.06s-5.55-.81-5.57-5.16,2.14-4.7,5.55-4.66c10.49.13,21,.06,31.49,0,1.62,0,3.24-.15,5.13-.25V240.6H284.26c-2-8.73-1.6-9.26,6.44-9.27h34.7V205.26h-9.2c-9.16,0-18.33-.19-27.49.09-4.12.13-5.42-1.11-5.46-5.3,0-4.48,1.86-5.16,5.69-5.1C300.91,195.13,312.9,195,325.46,195Zm52.2,46H335.29v25.35h42.37Zm-42.45,61.41h42.39V276.64H335.21Zm0-71.48h42.38V205.54H335.24Zm42.4,107.18V312.71H335.2V338.1ZM335.17,194.66h42.48V169.53H335.17Z"/>
        <path class="cls-1"
              d="M192.67,242.34c4.77-10.94,9.36-21.19,13.68-31.57,1.38-3.32,3.21-4.89,7-4.87,5,0,9.93-.61,15.83-1-1.11,2.3-1.82,3.89-2.63,5.44-6.84,13.14-13.61,26.31-20.62,39.36-1.53,2.85-1.41,5,.09,7.82,8,14.77,15.77,29.64,24,45.24-7.27-.39-13.81-.55-20.29-1.25-1.27-.14-2.73-2.17-3.4-3.65-4.85-10.68-9.53-21.44-14.42-32.54-3.27,7.3-6.44,14.49-9.72,21.62-1.94,4.2-3.06,9.89-6.4,12-3.1,2-8.64.13-13.11,0-1.49-.06-3-.14-5.23-.25.82-1.76,1.43-3.19,2.15-4.56,6.37-12.07,12.68-24.17,19.22-36.15a7.63,7.63,0,0,0,.11-7.9c-6.54-13.09-12.9-26.27-19.75-40.27,6.6-.51,12.63-1.13,18.67-1.25.88,0,2.08,2.29,2.67,3.71C184.56,222,188.48,231.92,192.67,242.34Z"/>
        <path class="cls-1" d="M377.66,241v25.35H335.29V241Z"/>
        <path class="cls-1" d="M335.21,302.39V276.64h42.39v25.75Z"/>
        <path class="cls-1" d="M335.24,230.92V205.54h42.38v25.37Z"/>
        <path class="cls-1" d="M377.64,338.1H335.2V312.71h42.44Z"/>
        <path class="cls-1" d="M335.17,194.66V169.53h42.48v25.13Z"/>
    </g>
</svg>
