<svg id="Layer_1" data-name="Layer 1" xmlns="http://www.w3.org/2000/svg" viewBox="0 0 512 512">
    <defs>
        <style>.cls-1{fill:#7e2777;}.cls-2{fill:#fff;}</style>
    </defs>
    <title>ms-onenote</title>
    <g id="OtbY0i.tif">
        <path class="cls-1"
              d="M0,512V.09H511.85V512ZM278.32,114.91a41,41,0,0,0-4.18.31Q194.55,129.63,115,144c-4.77.85-6.42,2.44-6.41,7.56.19,69.31.11,138.62.16,207.93,0,8.34-1.52,7,7.17,8.62q67.77,12.42,135.57,24.67c8.79,1.6,17.59,3.13,26.87,4.77ZM383.18,218.85c5,0,9.47,0,13.92,0,3.7.05,5.45-1.47,5.42-5.38q-.16-23.49,0-47c0-4-1.51-5.84-5.6-5.7-4.43.15-8.88,0-13.74,0,0-3-.19-5.28,0-7.56.4-3.82-.88-5.61-5-5.2-2.64.26-5.33,0-8,0-26.66,0-53.32.08-80-.08-4.13,0-5.6,1.21-5.38,5.39a148.4,148.4,0,0,1,0,17.49c-.31,4.72,1.08,6.31,6,6.25,20.66-.27,41.32-.12,62-.1,1.77,0,3.54.15,5.46.24v9.84H298.77c-13.92,0-13.77,0-13.87,13.81,0,4.15,1.21,5.39,5.37,5.36,20.83-.19,41.66-.09,62.48-.09h5.57v10.62h-4.76c-21.16,0-42.32.08-63.48-.07-3.85,0-5.54,1-5.15,5a48.38,48.38,0,0,1,0,9.49c-.42,4.14,1.41,5,5.18,5,21-.14,42-.07,63-.07h5.31v10.06c-2,.09-3.81.24-5.6.25q-27.24,0-54.49,0c-13.49,0-13.32,0-13.43,13.71,0,4.27,1.42,5.31,5.45,5.27,20.66-.17,41.32-.08,62-.08h6.06V276H299.3c-14.41,0-14.18,0-14.43,14.27-.09,4.93,1.81,5.76,6.1,5.72,20.49-.17,41-.08,61.48-.07h5.92v10.68H285c0,5,.28,9.34-.08,13.62s1.48,5.25,5.46,5.22c20.83-.17,41.66-.08,62.48-.08h5.5v10.37h-5.69c-20.66,0-41.32.15-62-.11-4.75-.06-6,1.49-5.77,6a137.25,137.25,0,0,1,0,17c-.28,4.42,1.18,5.65,5.6,5.62q43.49-.29,87,0c4.7,0,5.81-1.39,5.79-5.9-.16-44.32-.1-88.64-.1-133C383.18,223.4,383.18,221.45,383.18,218.85Zm5.49,70.87v5.78c0,14.83-.08,29.66,0,44.48.07,9.59-1.95,8.69,9.17,8.94,3.89.09,4.71-1.47,4.68-5-.15-16.66-.06-33.32-.08-50,0-1.3-.19-2.61-.32-4.22Zm13.5-5.4V225.7h-6.66c-6.83,0-6.84,0-6.84,6.6q0,23.19,0,46.38c0,1.77,0,3.54,0,5.64Z"/>
        <path class="cls-2"
              d="M278.32,114.91V397.54c-9.28-1.65-18.08-3.18-26.87-4.77q-67.79-12.3-135.57-24.67c-8.69-1.59-7.16-.29-7.17-8.62-.05-69.31,0-138.62-.16-207.93,0-5.11,1.64-6.71,6.41-7.56q79.63-14.21,159.19-28.77A41,41,0,0,1,278.32,114.91ZM172,240.29l.9-.6c1,1.3,2.07,2.56,3,3.92Q193.26,269,210.6,294.32c.9,1.31,2.14,3.19,3.39,3.33,6.52.75,13.1,1,19.7,1.46V212.56c-4.95.22-9.44.67-13.92.53-4-.13-5,1.54-5,5.31.17,16.32.08,32.64.06,49a30.79,30.79,0,0,1-.57,3.78c-1.19-1.5-1.84-2.22-2.39-3q-17-24.36-34.05-48.71c-1-1.41-2.48-3.48-3.77-3.5-5.9-.11-11.8.39-17.65.67V294.2L172,295Z"/>
        <path class="cls-2"
              d="M383.18,218.85c0,2.59,0,4.54,0,6.49,0,44.32-.06,88.64.1,133,0,4.51-1.1,5.94-5.79,5.9q-43.49-.33-87,0c-4.42,0-5.89-1.2-5.6-5.62a137.25,137.25,0,0,0,0-17c-.27-4.48,1-6,5.77-6,20.66.26,41.32.11,62,.11h5.69V325.37h-5.5c-20.83,0-41.66-.09-62.48.08-4,0-5.82-.86-5.46-5.22s.08-8.61.08-13.62h73.38V295.93h-5.92c-20.49,0-41-.09-61.48.07-4.3,0-6.19-.79-6.1-5.72.25-14.27,0-14.27,14.43-14.27h59.1V265.45h-6.06c-20.66,0-41.32-.09-62,.08-4,0-5.49-1-5.45-5.27.11-13.71-.06-13.71,13.43-13.71q27.24,0,54.49,0c1.78,0,3.57-.15,5.6-.25V236.23H353.1c-21,0-42-.08-63,.07-3.77,0-5.6-.85-5.18-5a48.38,48.38,0,0,0,0-9.49c-.4-4.08,1.3-5.08,5.15-5,21.16.15,42.32.07,63.48.07h4.76V206.23h-5.57c-20.83,0-41.66-.1-62.48.09-4.15,0-5.39-1.2-5.37-5.36.1-13.81-.05-13.81,13.87-13.81h59.62v-9.84c-1.92-.09-3.69-.24-5.46-.24-20.66,0-41.32-.17-62,.1-5,.06-6.34-1.52-6-6.25a148.4,148.4,0,0,0,0-17.49c-.22-4.18,1.25-5.42,5.38-5.39,26.66.15,53.32.08,80,.08,2.67,0,5.35.21,8,0,4.08-.41,5.35,1.38,5,5.2-.24,2.28,0,4.6,0,7.56,4.87,0,9.31.12,13.74,0,4.09-.14,5.63,1.67,5.6,5.7q-.17,23.49,0,47c0,3.91-1.72,5.43-5.42,5.38C392.65,218.81,388.2,218.85,383.18,218.85Z"/>
        <path class="cls-2"
              d="M388.67,289.72h13.48c.13,1.61.31,2.92.32,4.22,0,16.66-.07,33.32.08,50,0,3.54-.79,5.1-4.68,5-11.11-.25-9.09.65-9.17-8.94-.11-14.83,0-29.66,0-44.48Z"/>
        <path class="cls-2" d="M402.17,284.32h-13.5c0-2.1,0-3.87,0-5.64q0-23.19,0-46.38c0-6.59,0-6.59,6.84-6.6h6.66Z"/>
        <path class="cls-1"
              d="M172,240.29V295l-15.65-.84V216.59c5.85-.28,11.75-.79,17.65-.67,1.29,0,2.78,2.09,3.77,3.5q17.09,24.31,34.05,48.71c.55.79,1.2,1.52,2.39,3a30.79,30.79,0,0,0,.57-3.78c0-16.32.1-32.64-.06-49,0-3.77,1-5.44,5-5.31,4.47.14,9-.31,13.92-.53v86.55c-6.6-.44-13.17-.71-19.7-1.46-1.25-.14-2.48-2-3.39-3.33Q193.21,269,175.93,243.61c-.93-1.36-2-2.62-3-3.92Z"/>
    </g>
</svg>
