<svg id="Layer_1" data-name="Layer 1" xmlns="http://www.w3.org/2000/svg" viewBox="0 0 512 512">
    <defs>
        <style>.cls-1{fill:#38549e;}.cls-2{fill:#fff;}</style>
    </defs>
    <title>ms-visio</title>
    <g id="L6CppL.tif">
        <path class="cls-1"
              d="M0,512V.09H511.85V512ZM278,256q0-67.24,0-134.47c0-6.54-.19-6.71-6.36-5.59Q192.33,130.33,113,144.68c-3.8.68-5,2.38-4.91,6,.12,10.16,0,20.33,0,30.49q0,89.48,0,179c0,4.08.42,6.54,5.5,7.45C166,376.86,218.36,386.48,270.73,396c7.21,1.31,7.25,1.32,7.25-6.07Q278,323,278,256ZM385,216.4c-.63.7-1.66,1.94-2.8,3.09-8.23,8.26-16.37,16.62-24.79,24.69a13,13,0,0,0-4.45,10.46c.27,13.66.11,27.32.08,41,0,1.93-.23,3.85-.37,6.12-8.84,0-17.15.11-25.45-.05-3.28-.06-4.46,1.19-4.36,4.38.14,5-.28,10,.12,15,.37,4.62-1.52,5.66-5.73,5.52-8.49-.27-17,.07-25.49-.16-3.74-.1-5.39.75-5.24,4.92.3,8.32.3,16.67,0,25-.16,4.37,1.62,5.24,5.56,5.23q52.73-.18,105.47,0c4,0,5.58-1,5.57-5.29q-.15-100.72,0-201.44c0-4.19-1.38-5.38-5.48-5.35-20.33.18-40.65.08-61,.08-15.16,0-30.33.09-45.49-.06-3.46,0-4.65,1.06-4.62,4.57q.2,25.74,0,51.48c0,3.78,1.32,4.91,4.95,4.78,6.49-.23,13-.29,19.49,0a11.51,11.51,0,0,0,9.61-4c9-9.35,18.23-18.44,27.21-27.48Zm-62.11,52.83c0,6.2.22,11.82-.07,17.42-.22,4.24,1,6.28,5.56,5.75a36.3,36.3,0,0,1,8,0c4.32.46,6-1.07,5.79-5.55-.3-7.65-.85-15.42.09-23,1.54-12.23-2.27-21.43-12-28.88-5.77-4.4-9.89-11.93-16.18-14.41-6.51-2.56-14.76-.58-22.24-.85-3.85-.14-5.29,1.16-5.23,5.14.2,12.65.29,25.32,0,38-.13,5,1.24,6.72,6.4,6.5C302.63,268.94,312.42,269.23,322.85,269.23ZM314.11,298c0-5.32-.05-10.64,0-16,0-2.69-1.09-4-3.82-4q-10,0-20,0c-2.71,0-3.83,1.2-3.81,4q.12,15.72,0,31.43c0,2.67.87,4,3.74,3.93q10-.16,20,0c2.79,0,3.91-1.14,3.88-3.85C314.07,308.34,314.11,303.18,314.11,298Zm16.73-81.39c5.08,5.06,10.41,10.45,15.89,15.7a3,3,0,0,0,3,.14c5.59-5.34,11-10.84,16.17-16l-17.42-17.14Z"/>
        <path class="cls-2"
              d="M278,256q0,67,0,134c0,7.39,0,7.39-7.25,6.07-52.37-9.54-104.72-19.17-157.12-28.47-5.08-.9-5.51-3.36-5.5-7.45q.1-89.48,0-179c0-10.16.09-20.33,0-30.49,0-3.58,1.11-5.28,4.91-6q79.32-14.25,158.59-28.76c6.17-1.12,6.36-1,6.36,5.59Q278,188.74,278,256Zm-47.6-47.87c-6.62.51-12.27.67-17.81,1.57-1.53.25-3.46,2.54-3.9,4.23-6.34,24.28-12.46,48.61-18.66,72.93a19.59,19.59,0,0,1-1.65,3.19c-.65-1.82-1.09-2.81-1.35-3.85-5.82-23.22-11.59-46.44-17.47-69.64-.27-1.07-1.52-2.73-2.27-2.7-5.07.16-10.13.7-15.13,1.12a11.64,11.64,0,0,0,0,2.25q12.44,43.91,25,87.78a4.91,4.91,0,0,0,3.27,2.81c4.25.72,8.65.6,12.85,1.47s5.82-.68,7-4.59c5.9-19.41,12.09-38.73,18.14-58.09C222.36,234.06,226.22,221.53,230.39,208.1Z"/>
        <path class="cls-2"
              d="M385,216.4,347.76,178.9c-9,9-18.23,18.13-27.21,27.48a11.51,11.51,0,0,1-9.61,4c-6.48-.31-13-.25-19.49,0-3.63.13-5-1-4.95-4.78q.24-25.74,0-51.48c0-3.5,1.16-4.6,4.62-4.57,15.16.14,30.32.06,45.49.06,20.33,0,40.66.1,61-.08,4.1,0,5.49,1.16,5.48,5.35q-.15,100.72,0,201.44c0,4.26-1.57,5.3-5.57,5.29q-52.73-.19-105.47,0c-3.94,0-5.72-.86-5.56-5.23.3-8.32.3-16.67,0-25-.15-4.17,1.5-5,5.24-4.92,8.49.23,17-.11,25.49.16,4.21.13,6.1-.9,5.73-5.52-.4-5,0-10-.12-15-.09-3.19,1.08-4.45,4.36-4.38,8.3.16,16.61.05,25.45.05.14-2.26.36-4.19.37-6.12,0-13.66.19-27.33-.08-41a13,13,0,0,1,4.45-10.46c8.41-8.07,16.56-16.43,24.79-24.69C383.29,218.34,384.32,217.1,385,216.4Z"/>
        <path class="cls-2"
              d="M322.85,269.23c-10.43,0-20.22-.29-30,.12-5.17.21-6.53-1.5-6.4-6.5.33-12.65.24-25.31,0-38-.06-4,1.37-5.28,5.23-5.14,7.48.27,15.73-1.71,22.24.85,6.3,2.48,10.41,10,16.18,14.41,9.78,7.46,13.58,16.65,12,28.88-.95,7.54-.4,15.31-.09,23,.18,4.48-1.47,6-5.79,5.55a36.3,36.3,0,0,0-8,0c-4.57.53-5.78-1.5-5.56-5.75C323.07,281,322.85,275.43,322.85,269.23Z"/>
        <path class="cls-2"
              d="M314.11,298c0,5.16,0,10.31,0,15.47,0,2.71-1.1,3.89-3.88,3.85q-10-.16-20,0c-2.86,0-3.76-1.25-3.74-3.93q.1-15.72,0-31.43c0-2.75,1.1-4,3.81-4q10,0,20,0c2.73,0,3.85,1.34,3.82,4C314.06,287.38,314.11,292.7,314.11,298Z"/>
        <path class="cls-2"
              d="M330.85,216.64l17.6-17.26,17.42,17.14c-5.15,5.12-10.58,10.62-16.17,16a3,3,0,0,1-3-.14C341.26,227.09,335.92,221.69,330.85,216.64Z"/>
        <path class="cls-1"
              d="M230.39,208.1c-4.16,13.43-8,26-11.94,38.47-6.05,19.36-12.24,38.68-18.14,58.09-1.19,3.9-2.75,5.48-7,4.59s-8.61-.75-12.85-1.47a4.91,4.91,0,0,1-3.27-2.81q-12.66-43.85-25-87.78a11.64,11.64,0,0,1,0-2.25c5-.41,10.05-1,15.13-1.12.75,0,2,1.64,2.27,2.7,5.88,23.2,11.66,46.43,17.47,69.64.26,1,.71,2,1.35,3.85a19.59,19.59,0,0,0,1.65-3.19c6.21-24.31,12.32-48.65,18.66-72.93.44-1.69,2.37-4,3.9-4.23C218.11,208.77,223.76,208.62,230.39,208.1Z"/>
    </g>
</svg>
