<svg id="Layer_1" data-name="Layer 1" xmlns="http://www.w3.org/2000/svg" viewBox="0 0 512 512">
    <defs>
        <style>.cls-1{fill:#bf2526;}.cls-2{fill:#fff;}</style>
    </defs>
    <title>pdf</title>
    <g id="_6Dmc89.tif" data-name="6Dmc89.tif">
        <path class="cls-1"
              d="M0,512V.09H511.85V512ZM190.34,329c2.89-.5,5.85-.78,8.67-1.53,27.47-7.28,54.84-14.93,82.4-21.83,10.54-2.64,21.5-3.59,32.27-5.31l-.69,1.95c1.27,1.08,2.37,2.63,3.84,3.18,16.81,6.28,33.63,12.55,50.56,18.48a82.06,82.06,0,0,0,16,3.63c8.12,1.1,15.61-.92,23.23-6.18-2.17-.54-3.26-1-4.35-1-18.85-.15-36.26-6.19-53.48-13l-20.55-8.2c27.59-.52,56-7.53,82.87,8.46-.52-3.15-1.28-5.84-3-7.66-5.24-5.63-11.67-10-19.48-10-21.44,0-42.93-.2-64.31,1.17-43.26,2.78-84.29,15.14-124.22,31.41-3.57,1.45-6.55,4.35-9.8,6.58,1.48-3.14,2.91-6.3,4.44-9.41,13.94-28.37,28-56.71,41.81-85.13,2.76-5.66,1.17-11.45-4-16.49-.79,1.72-1.58,3.32-2.27,5-16.64,40.21-35.58,79.26-59.17,115.92-13.17,20.47-26.7,40.71-44.33,57.73-3.25,3.14-7.51,5.42-11.65,7.36a7,7,0,0,1-6.27-.87c-1-.84-.75-4.14,0-5.86a39.84,39.84,0,0,1,5.94-9.75c11.06-12.67,22.37-25.12,33.6-37.65,1.25-1.4,2.54-2.76,3.8-4.15a2.28,2.28,0,0,0-2.27.12c-12.24,8.93-24.89,17.35-36.49,27-5.26,4.4-9.11,11-12.31,17.19-3,5.78-.2,11.51,5.6,14.68,6.2,3.39,13.1,4.3,19.27,1.29,7.06-3.45,14.61-7.35,19.72-13,10.06-11.23,18.94-23.58,27.6-36C179.67,348.1,184.75,338.37,190.34,329Zm53.36-135.52a45.22,45.22,0,0,1-2.71-6.2,235.87,235.87,0,0,1-8.42-62.14,38.5,38.5,0,0,1,1.9-13.2c2.28-6.16,8.11-6.67,11.9-1.33a41.05,41.05,0,0,1,4.72,9.29c1.47,3.91,2.41,8,3.57,12l1.33-.08c0-2.89.24-5.8,0-8.66-1.12-11.45-8.39-19.09-17.92-19.06-12.11,0-20.16,8.19-20,21.23.41,31.61,7.76,62.11,17.56,91.8,10,30.22,31.18,52.58,55.87,71.94,6.82,5.35,13,2.89,21.06,1.35-4.43-3.31-7.7-5.83-11-8.22-16.78-12-30.89-26.59-40.57-44.79-6-11.22-10.13-23.39-15.1-35.13,1.22-3.44,3-6.78,3.55-10.32,1.83-11.71,3.22-23.49,4.78-35.24l-1.69-.26c-3.2,10.73-6.47,21.45-9.5,32.23C242.59,190.12,243.44,191.88,243.71,193.48Z"/>
        <path class="cls-2"
              d="M245.84,202.3c5,11.74,9.14,23.92,15.1,35.13,9.68,18.2,23.78,32.81,40.57,44.79,3.35,2.39,6.62,4.92,11,8.22-8.05,1.54-14.24,4-21.06-1.35-24.69-19.36-45.89-41.72-55.87-71.94-9.81-29.69-17.15-60.19-17.56-91.8-.17-13,7.87-21.19,20-21.23,9.54,0,16.81,7.61,17.92,19.06.28,2.86,0,5.77,0,8.66l-1.33.08c-1.17-4-2.1-8.13-3.57-12a41.05,41.05,0,0,0-4.72-9.29c-3.79-5.34-9.62-4.83-11.9,1.33a38.5,38.5,0,0,0-1.9,13.2A235.87,235.87,0,0,0,241,187.28a45.23,45.23,0,0,0,2.71,6.2Z"/>
        <path class="cls-2"
              d="M190.34,329c-5.59,9.37-10.67,19.09-16.91,28-8.66,12.39-17.54,24.74-27.6,36-5.11,5.7-12.66,9.6-19.72,13-6.17,3-13.08,2.1-19.27-1.29-5.79-3.17-8.56-8.9-5.6-14.68,3.2-6.24,7.05-12.8,12.31-17.19,11.6-9.69,24.25-18.12,36.49-27a2.28,2.28,0,0,1,2.27-.12c-1.27,1.38-2.55,2.75-3.8,4.15-11.23,12.53-22.54,25-33.6,37.65a39.84,39.84,0,0,0-5.94,9.75c-.78,1.71-1,5,0,5.86a7,7,0,0,0,6.27.87c4.14-1.94,8.4-4.22,11.65-7.36,17.63-17,31.15-37.26,44.33-57.73,23.59-36.66,42.53-75.7,59.17-115.92.68-1.65,1.48-3.25,2.27-5,5.13,5,6.71,10.84,4,16.49-13.85,28.42-27.87,56.76-41.81,85.13-1.53,3.11-3,6.27-4.44,9.41Z"/>
        <path class="cls-2"
              d="M190.34,329c3.25-2.23,6.23-5.12,9.8-6.58,39.93-16.27,81-28.64,124.22-31.41,21.38-1.37,42.87-1.2,64.31-1.17,7.8,0,14.24,4.41,19.48,10,1.69,1.82,2.45,4.5,3,7.66-26.83-16-55.28-9-82.87-8.46l20.55,8.2c17.22,6.84,34.63,12.88,53.48,13,1.09,0,2.17.51,4.35,1-7.61,5.26-15.1,7.28-23.23,6.18a82.06,82.06,0,0,1-16-3.63c-16.94-5.92-33.75-12.2-50.56-18.48-1.47-.55-2.57-2.1-3.84-3.18l.69-1.95C302.92,302,292,303,281.42,305.64c-27.56,6.89-54.93,14.55-82.4,21.83-2.83.75-5.78,1-8.67,1.54Z"/>
        <path class="cls-2"
              d="M245.84,202.3l-2.13-8.82c-.27-1.6-1.12-3.37-.72-4.78,3-10.78,6.3-21.49,9.5-32.23l1.69.26c-1.56,11.75-2.95,23.53-4.78,35.24C248.84,195.52,247.06,198.86,245.84,202.3Z"/>
    </g>
</svg>
