<?xml version="1.0" encoding="utf-8"?>
<!-- Generator: Adobe Illustrator 18.1.1, SVG Export Plug-In . SVG Version: 6.00 Build 0)  -->
<svg version="1.1" id="Layer_1" xmlns="http://www.w3.org/2000/svg" xmlns:xlink="http://www.w3.org/1999/xlink" x="0px" y="0px"
	 viewBox="0 0 460 460" enable-background="new 0 0 460 460" xml:space="preserve">
<circle fill="#555555" cx="233.6" cy="169.9" r="75.8"/>
<g>
	<circle fill="#555555" cx="360.2" cy="104.3" r="44.7"/>
	<path fill="#287252" d="M402.9,140.7c-8.6,11.6-26.4,19.1-42,19.1c-13.5,0-29.1-5.7-38.6-14.8c0.9,4.4,1.4,9,1.4,13.7
		c0,29.6-21.6,60.9-15.1,52.1c28.4,9.8,52.4,29.9,61.1,51.1c46-2.4,75.9-23.9,75.9-59.4C445.5,175.1,434.2,151.5,402.9,140.7z"/>
</g>
<g>
	<circle fill="#555555" cx="107.7" cy="104.3" r="44.7"/>
	<path fill="#287252" d="M22.4,202.6c0,35.6,26.9,57,72.9,59.4c8.7-21.2,32.7-41.3,61.1-51.1c6.5,8.7-12.1-22.5-12.1-52.1
		c0-4.7,0.5-9.3,1.4-13.7c-9.5,9.1-25.2,14.8-38.6,14.8c-15.5,0-33.4-7.5-42-19.1C33.7,151.5,22.4,175.1,22.4,202.6z"/>
</g>
<path fill="#283F77" d="M298,227.2c-2.9,3.9-6.5,7.6-10.7,10.9C264,264,210.8,324,212.6,331.2l-48.8-102.6c-0.4-0.5-0.8-1-1.1-1.5
	c-50.1,17-70.1,54.7-70.1,98.5c0,59.8,57.5,98,137.6,98s134.8-38.3,134.8-98C364.9,282,347.9,244.3,298,227.2z"/>
<path fill="#171F38" d="M298.4,227.1c17.3-0.3-0.5,63.8-0.5,63.8l-45.8,5.5v24l-40,10.7C212,331.2,274.5,227.5,298.4,227.1z"/>
<polygon fill="#171F38" points="162.4,227.3 153.6,288.7 177,303.4 177,318.7 212.9,331.2 "/>
</svg>
