<?xml version="1.0" encoding="utf-8"?>
<!-- Generator: Adobe Illustrator 18.1.1, SVG Export Plug-In . SVG Version: 6.00 Build 0)  -->
<svg version="1.1" id="Layer_1" xmlns="http://www.w3.org/2000/svg" xmlns:xlink="http://www.w3.org/1999/xlink" x="0px" y="0px"
	 viewBox="0 0 128 128" enable-background="new 0 0 128 128" xml:space="preserve">
<path fill="#FFFFFF" d="M110.3,99.9l-43-74.6c-1.9-1.9-4.6-1.9-5.6,0L18.5,99.9c-1.1,1.9,0.3,4.2,2.4,4.2h86.1
	C109.2,104.1,110.5,101.8,110.3,99.9z M64.3,96.6c-3,0-5.5-2.5-5.5-5.5s2.5-5.5,5.5-5.5s5.5,2.5,5.5,5.5S67.3,96.6,64.3,96.6z
	 M70.2,80.4c0,0.8-0.7,1.4-1.5,1.4h-9.1c-0.8,0-1.5-0.6-1.5-1.4l-0.8-27.2c0-0.8,0.7-1.4,1.5-1.4h10.9c0.8,0,1.5,0.6,1.5,1.4
	L70.2,80.4z"/>
</svg>
