<?xml version="1.0" encoding="utf-8"?>
<!-- Generator: Adobe Illustrator 18.1.1, SVG Export Plug-In . SVG Version: 6.00 Build 0)  -->
<svg version="1.1" id="Capa_1" xmlns="http://www.w3.org/2000/svg" xmlns:xlink="http://www.w3.org/1999/xlink" x="0px" y="0px"
	 viewBox="-6 8.8 485.2 485.2" enable-background="new -6 8.8 485.2 485.2" xml:space="preserve">
<path fill="#B1B1B1" d="M476.1,252.5c0,133.4-106.1,239.5-239.5,239.5S-3,385.9-3,252.5C-3,119.1,103.1,11.8,236.5,11.8
	S476.1,119.1,476.1,252.5z"/>
<path fill="#FFFFFF" d="M265.4,162.4h-57.8c-5.5,0-10-4.5-10-10V94.6c0-5.5,4.5-10,10-10h57.8c5.5,0,10,4.5,10,10v57.8
	C275.4,157.9,270.9,162.4,265.4,162.4z"/>
<path fill="#FFFFFF" d="M265.5,290.8h-57.8c-5.5,0-10-4.5-10-10l0-57.8c0-5.5,4.5-10,10-10h57.8c5.5,0,10,4.5,10,10v57.8
	C275.5,286.3,271,290.8,265.5,290.8z"/>
<path fill="#FFFFFF" d="M265.4,421.1h-57.8c-5.5,0-10-4.5-10-10v-57.8c0-5.5,4.5-10,10-10h57.8c5.5,0,10,4.5,10,10v57.8
	C275.4,416.6,270.9,421.1,265.4,421.1z"/>
</svg>
