<?xml version="1.0" encoding="utf-8"?>
<!-- Generator: Adobe Illustrator 18.1.1, SVG Export Plug-In . SVG Version: 6.00 Build 0)  -->
<svg version="1.1" id="Layer_1" xmlns="http://www.w3.org/2000/svg" xmlns:xlink="http://www.w3.org/1999/xlink" x="0px" y="0px"
	 viewBox="0 0 25 25" enable-background="new 0 0 25 25" xml:space="preserve">
<path fill="#0092D9" d="M24,12.6C24,19.1,18.9,24,12.5,24S1,19,1,12.6S6,1,12.5,1S24,6.2,24,12.6z"/>
<path fill="#FFFFFF" d="M13.9,8.2h-2.8c-0.3,0-0.5-0.2-0.5-0.5V4.9c0-0.3,0.2-0.5,0.5-0.5h2.8c0.3,0,0.5,0.2,0.5,0.5v2.8
	C14.4,8,14.2,8.2,13.9,8.2z"/>
<path fill="#FFFFFF" d="M13.9,14.4h-2.8c-0.3,0-0.5-0.2-0.5-0.5v-2.8c0-0.3,0.2-0.5,0.5-0.5h2.8c0.3,0,0.5,0.2,0.5,0.5V14
	C14.4,14.2,14.2,14.4,13.9,14.4z"/>
<path fill="#FFFFFF" d="M13.9,20.7h-2.8c-0.3,0-0.5-0.2-0.5-0.5v-2.8c0-0.3,0.2-0.5,0.5-0.5h2.8c0.3,0,0.5,0.2,0.5,0.5v2.8
	C14.4,20.5,14.2,20.7,13.9,20.7z"/>
</svg>
