<?xml version="1.0" encoding="utf-8"?>
<!-- Generator: Adobe Illustrator 20.0.0, SVG Export Plug-In . SVG Version: 6.00 Build 0)  -->
<svg version="1.1" id="Layer_1" xmlns="http://www.w3.org/2000/svg" xmlns:xlink="http://www.w3.org/1999/xlink" x="0px" y="0px"
	 viewBox="0 0 512 512" style="enable-background:new 0 0 512 512;" xml:space="preserve">
<style type="text/css">
	.st0{fill:#999999;}
	.st1{fill:#F1F2F2;}
</style>
<rect class="st0" width="512" height="512"/>
<g>
	<path class="st1" d="M242.3,41.7c8.6,0,17.2,0,25.8,0c2.4,0.4,4.7,1,7.1,1.3c41.6,4.7,70.8,25.9,78.9,71.7
		c4.4,24.5,2.8,48.9-1.3,73.2c-6.2,35.9-17.5,70.1-37.3,101c-4.1,6.3-5.7,12-4.5,19.2c2.3,13.1,7.5,23.7,20.9,28.5
		c5.4,1.9,10.5,4.4,15.9,6.4c24,8.7,48.4,16.3,71.8,26.2c17,7.2,33.8,16,48.7,26.7c21.7,15.5,31.3,39.2,36.8,64.6
		c2.1,9.5,3.4,19.2,5,28.8c0,7.8,0,15.6,0,23.4c-2.2-0.1-4.5-0.3-6.7-0.3c-164.3,0-328.6,0-492.9,0c-2.2,0-4.5,0.2-6.7,0.3
		c0-7.8,0-15.6,0-23.4c0.4-1.5,0.9-3.1,1.2-4.6c2.1-11.4,3.4-23.1,6.4-34.3c8.5-31.8,26.2-56.8,57.1-70.3
		c23.2-10.1,46.8-19.2,70.4-28.4c16.3-6.4,33.1-11.8,49.2-18.6c9.7-4.1,17.3-21.5,15.2-31.3c-0.2-1.1-1-2.2-1.7-3.2
		c-15.6-20.9-26.1-44.4-33.7-69.1c-11.4-37.1-17.8-74.7-11.7-113.7c5.8-36.8,27.4-61.1,62.6-69.6C226.6,44.1,234.5,43.1,242.3,41.7z
		"/>
</g>
</svg>
