<?xml version="1.0" encoding="utf-8"?>
<!-- Generator: Adobe Illustrator 20.0.0, SVG Export Plug-In . SVG Version: 6.00 Build 0)  -->
<svg version="1.1" id="Layer_1" xmlns="http://www.w3.org/2000/svg" xmlns:xlink="http://www.w3.org/1999/xlink" x="0px" y="0px"
	 viewBox="0 0 90 120" style="enable-background:new 0 0 90 120;" xml:space="preserve">
<style type="text/css">
	.st0{fill:#989898;}
	.st1{fill:#F2F2F2;}
</style>
<rect x="0.3" class="st0" width="89.4" height="120"/>
<g>
	<path class="st1" d="M43.3,21.6c1.5,0,3,0,4.5,0c0.4,0.1,0.8,0.2,1.2,0.2c7.3,0.8,12.4,7.5,13.8,15.5c0.8,4.3,0.5,8.5-0.2,12.8
		c-1.1,6.3-3.1,12.2-6.5,17.6c-0.7,1.1-1,2.1-0.8,3.4c0.4,2.3,1.3,8.7,3.6,9.6c0.9,0.4,1.8,0.8,2.8,1.2c4.2,1.7,8.4,3.1,12.5,5
		c3,1.4,5.9,3,8.5,5.1c3.8,2.9,5.5,7.5,6.4,12.3c0.4,1.8,0.6,9.7,0.9,11.5c0,1.5,0,3,0,4.4c-0.4,0-0.8-0.1-1.2-0.1
		c-28.7,0-59.3,0-88,0c-0.4,0-0.8,0-1.2,0.1c0-1.5,0-3,0-4.4c0.1-0.3,0.2-0.6,0.2-0.9c0.4-2.2,0.6-10.4,1.1-12.5
		c1.5-6,6.6-10.8,12-13.4c4-1.9,8.2-3.7,12.3-5.4c2.8-1.2,5.8-2.2,8.6-3.5c1.7-0.8,3-8.3,2.7-10c0-0.2-0.2-0.4-0.3-0.6
		c-2.7-3.6-4.6-7.7-5.9-12.1c-2-6.5-3.1-13-2-19.8c1-6.4,4.8-13.7,10.9-15.1C40.5,22,41.9,21.8,43.3,21.6z"/>
</g>
</svg>
