<?xml version="1.0" encoding="utf-8"?>
<!-- Generator: Adobe Illustrator 18.1.1, SVG Export Plug-In . SVG Version: 6.00 Build 0)  -->
<svg version="1.1" id="Layer_1" xmlns="http://www.w3.org/2000/svg" xmlns:xlink="http://www.w3.org/1999/xlink" x="0px" y="0px"
	 viewBox="0 0 460 460" enable-background="new 0 0 460 460" xml:space="preserve">
<path fill="#666666" d="M346.5,402.4l84.5-84.6v111c0,2.8-2.1,5.2-4.9,5.2H252.7c-2.8,0-4.7-2.4-4.7-5.2V318l84.2,84.5
	C336.2,406.4,342.5,406.4,346.5,402.4z M426.6,281H253.3c-2.8,0-4.3,2.5-4.3,5.3v10.2l84.5,86.5c4,4,9.4,4,13.4,0l85.1-86.7v-10
	C432,283.5,429.4,281,426.6,281z M233.5,210c44.7,0,81-36.3,81-81s-36.3-81-81-81c-44.7,0-81,36.3-81,81S188.7,210,233.5,210z
	 M234,273c0-2.2,1.8-4,4-4h134.9c-8.1-32-29.1-58.1-69.3-71.9c-14.8,19.9-45.4,32.9-72.1,32.9c-26.8,0-58.5-13-73.2-33
	c-54.1,18.4-75.8,59.2-75.8,106.5c0,64.6,62.2,106,148.7,106c0.9,0,1.9,0,2.8,0V273z"/>
</svg>
