<?xml version="1.0" encoding="utf-8"?>
<!-- Generator: Adobe Illustrator 18.1.1, SVG Export Plug-In . SVG Version: 6.00 Build 0)  -->
<svg version="1.1" id="Layer_1" xmlns="http://www.w3.org/2000/svg" xmlns:xlink="http://www.w3.org/1999/xlink" x="0px" y="0px"
	 viewBox="0 0 460 460" enable-background="new 0 0 460 460" xml:space="preserve">
<g>
	<circle fill="#555555" cx="233.5" cy="129" r="81"/>
	<path fill="#555555" d="M234.3,337c0-59.3,48.1-107.4,107.4-107.4c4.1,0,8.1,0.2,12.1,0.7c-11.6-14.1-27.9-25.5-50.2-33.2
		c-14.8,19.9-45.4,32.9-72.1,32.9c-26.8,0-58.5-13-73.2-33c-54.1,18.4-75.8,59.2-75.8,106.5c0,64.6,62.2,106,148.7,106
		c10.3,0,20.2-0.6,29.6-1.7C244.3,388.8,234.3,364.1,234.3,337z"/>
</g>
<path fill="#565656" d="M352.4,248c-52.9,0-95.7,42.9-95.7,95.7c0,52.9,42.9,95.7,95.7,95.7c52.9,0,95.7-42.9,95.7-95.7
	C448.1,290.9,405.3,248,352.4,248z M352.4,281.1c11.1,0,21.6,2.9,30.7,8l-85.2,85.2c-5.1-9.1-8-19.5-8-30.7
	C289.8,309.2,317.8,281.1,352.4,281.1z M352.4,406.3c-11,0-21.3-2.8-30.3-7.8l85.1-85.1c5,9,7.8,19.3,7.8,30.3
	C415,378.3,387,406.3,352.4,406.3z"/>
</svg>
