<svg id="Layer_1" data-name="Layer 1" xmlns="http://www.w3.org/2000/svg" viewBox="0 0 512 512">
    <defs>
        <style>.cls-1{fill:#d04627;}.cls-2{fill:#fff;}</style>
    </defs>
    <title>ms-powerpoint</title>
    <g id="qnTANs.tif">
        <path class="cls-1"
              d="M0,512V.09H511.85V512ZM276.67,400.86V110.62c-1.92.21-3.54.28-5.12.57-53.57,9.7-107.12,19.5-160.72,29-5,.9-6.66,2.51-6.64,7.86q.32,107.47,0,214.93c0,5.64,1.85,7.19,7,8.1,43.77,7.72,87.5,15.73,131.24,23.64C253.68,396.79,265,398.78,276.67,400.86Zm63.41-159.05c-1.15,10.18-5.34,18.08-12.67,24.09-12.53,10.29-26.46,11.4-41.36,4.85v17H354.4v13.45H286v11.27h67.49v13.7H286.15v17.92h5.35q41.73,0,83.47,0c8.6,0,11.28-2.71,11.28-11.38q0-67,0-133.95c0-9-2.69-11.71-11.54-11.72q-32.24,0-64.47,0c-6.83,0-13.67-.13-20.49.11-1.36,0-3.76,1.42-3.83,2.31-.38,5-.18,10.08-.18,15.32l13.33-3.91c0,9.17-.09,17.63,0,26.09.07,4.76-1.22,11,1.26,13.81,2.13,2.41,8.72,1,13.34,1.06C322.32,241.88,331,241.81,340.08,241.81Zm51.76,69c13.19,1.63,15.82-.65,15.82-12.88q0-44.21,0-88.43c0-11.15.07-22.31-.31-33.46-.29-8.3-2.75-10.29-11.22-10.29q-52.71,0-105.41,0c-1.77,0-3.54.16-5.37.25v15.74H391.85Z"/>
        <path class="cls-2"
              d="M276.67,400.86c-11.72-2.09-23-4.07-34.26-6.11-43.74-7.91-87.46-15.92-131.24-23.64-5.15-.91-7-2.46-7-8.1q.35-107.46,0-214.93c0-5.35,1.61-7,6.64-7.86,53.6-9.54,107.15-19.33,160.72-29,1.58-.29,3.2-.36,5.12-.57Zm-91-134.07c3.29,0,5.62-.09,7.94,0,22.68,1,38.53-15.58,32.47-41.95-2.16-9.4-8.23-15.94-17.74-16.55-12.68-.82-25.48.15-38.56.35V295.9l15.9,1.25Z"/>
        <path class="cls-2"
              d="M340.08,241.81c-9.13,0-17.76.07-26.39,0-4.62-.05-11.21,1.35-13.34-1.06-2.47-2.8-1.19-9-1.26-13.81-.12-8.46,0-16.92,0-26.09l-13.33,3.91c0-5.25-.19-10.31.18-15.32.07-.9,2.47-2.27,3.83-2.31,6.82-.24,13.66-.11,20.49-.11q32.24,0,64.47,0c8.85,0,11.54,2.77,11.54,11.72q0,67,0,133.95c0,8.67-2.68,11.38-11.28,11.38q-41.73,0-83.47,0h-5.35V326.13h67.39v-13.7H286V301.16H354.4V287.71H286.05v-17c14.9,6.54,28.82,5.43,41.36-4.85C334.74,259.89,338.93,252,340.08,241.81ZM307,201.41v32.21h32.62C339.94,218.08,323.81,202.19,307,201.41Z"/>
        <path class="cls-2"
              d="M391.85,310.8V181.75H285.33V166c1.84-.09,3.6-.25,5.37-.25q52.71,0,105.41,0c8.47,0,10.94,2,11.22,10.29.38,11.14.3,22.3.31,33.46q.05,44.21,0,88.43C407.66,310.16,405,312.44,391.85,310.8Z"/>
        <path class="cls-1"
              d="M185.62,266.79v30.36l-15.9-1.25V208.66c13.08-.2,25.88-1.17,38.56-.35,9.51.61,15.58,7.15,17.74,16.55,6.06,26.37-9.79,42.95-32.47,41.95C191.24,266.7,188.91,266.79,185.62,266.79Zm0-14.88c4.26-.29,7.71-.35,11.11-.81,5.72-.76,9.48-4.61,10.5-10.39,2.31-13.08-6.34-21.06-19.3-17.67a3.63,3.63,0,0,0-2.2,2.57C185.59,234.07,185.66,242.52,185.66,251.91Z"/>
        <path class="cls-1" d="M307,201.41c16.83.79,33,16.67,32.62,32.21H307Z"/>
        <path class="cls-2"
              d="M185.66,251.91c0-9.39-.07-17.84.1-26.29a3.63,3.63,0,0,1,2.2-2.57c13-3.39,21.61,4.59,19.3,17.67-1,5.78-4.77,9.63-10.5,10.39C193.37,251.56,189.92,251.62,185.66,251.91Z"/>
    </g>
</svg>
