<?xml version="1.0" encoding="utf-8"?>
<!-- Generator: Adobe Illustrator 20.0.0, SVG Export Plug-In . SVG Version: 6.00 Build 0)  -->
<svg version="1.1" id="Capa_1" xmlns="http://www.w3.org/2000/svg" xmlns:xlink="http://www.w3.org/1999/xlink" x="0px" y="0px"
	 viewBox="0 0 438.5 438.5" style="enable-background:new 0 0 438.5 438.5;" xml:space="preserve">
<style type="text/css">
	.st0{fill:#009CDC;}
</style>
<path class="st0" d="M325.3,180.8c0,0,17.6-13.4,4.2-26.8s-26.4,3.9-26.4,3.9L168.4,292.7c0,0-31.6,40.7-55.5,16.1
	c-24-24.7,16.1-55.6,16.1-55.6L305.6,76.6c0,0,41.2-45.4,80-6.7c38.7,38.7-6.8,80.1-6.8,80.1L180.2,348.4c0,0-63.5,73.4-122.3,14.6
	s15.3-121.6,15.3-121.6L223.9,90.7c0,0,16.9-14.1,4.2-26.8s-26.8,4.2-26.8,4.2L28.4,241c0,0-65.3,71.6,7.6,144.5
	s144.5,7.6,144.5,7.6l237.7-237.7c0,0,47.6-52.4-9.1-109.2S300,37.1,300,37.1L95.5,241.6c0,0-52.4,42.6-4.9,90.1
	c47.5,47.6,89.4-5.6,89.4-5.6L325.3,180.8z"/>
</svg>
