<?xml version="1.0" standalone="no"?>
<!DOCTYPE svg PUBLIC "-//W3C//DTD SVG 1.1//EN" "http://www.w3.org/Graphics/SVG/1.1/DTD/svg11.dtd">
<svg xmlns="http://www.w3.org/2000/svg">
<metadata>Copyright (C) 2016 by original authors @ fontello.com</metadata>
<defs>
<font id="bp-line-icons" horiz-adv-x="1000" >
<font-face font-family="bp-line-icons" font-weight="400" font-stretch="normal" units-per-em="1000" ascent="850" descent="-150" />
<missing-glyph horiz-adv-x="1000" />
<glyph glyph-name="actor" unicode="&#xe800;" d="M485 364c147-4 268 105 263 238-4 121-113 220-246 224-147 4-267-105-262-239 4-121 112-219 245-223z m16 386c89-3 161-69 164-150 3-89-77-162-175-159-90 3-162 69-165 149-3 90 78 163 176 160z m359-480c-9 57-63 102-141 103-55-53-117-82-215-82v0c0 0 0 0 0 0 0 0 0 0-1 0v0c-97 0-159 29-215 82-77-1-132-46-140-103l-57-316c-1-2-1-4 0-5 19-67 59-76 146-76h266v0h267c89 0 146 39 146 86l-56 311z m-99-336l-514 0c-64 0-100 21-76 108l31 162c9 46 30 88 80 87 60-64 118-68 221-72 0 0 163 5 222 69 51 1 72-38 81-84l30-162c21-101-28-108-75-108z" horiz-adv-x="1000" />

<glyph glyph-name="baseline" unicode="&#xe801;" d="M912 511l0 134-1 0 0 2-524 0 0 93-290 0 0-229h-70l82-573h788 1l80 573h-66z m-783 197l225 0 0-93 526 0 0-103-751 0 0 196z m741-737l-734 0-64 502 862 0-64-502z m-367 446c-122 0-216-97-210-210 6-107 100-190 210-190s204 83 210 190c7 113-88 210-210 210z m170-210c-3-87-81-156-170-156s-166 69-170 156c-3 89 74 167 170 167s174-78 170-167z m-150-8l58-55-27-25-72 67 1 126 41 0-1-113z" horiz-adv-x="1000" />

<glyph glyph-name="business-process" unicode="&#xe802;" d="M212 525c82 0 148 66 148 148s-66 149-148 149-149-67-149-149 66-148 149-148z m0 233c47 0 85-38 85-85s-38-85-85-85-86 38-86 85 38 85 86 85z m-174-710l166-167c5-5 13-5 18 0l167 167c5 5 5 13 0 18l-167 167c-5 5-13 5-18 0l-167-167c-5-5-5-13 1-18z m175-97l-106 106 106 107 106-107-106-106z m746 270h-276c-7 0-13-6-13-13v-275c0-8 6-13 13-13h276c7 0 13 5 13 13v275c0 7-6 13-13 13z m-229-241v181h182v-181h-182z m-544 517v-147l-64 62-28-29 114-117 114 115-28 28-58-56v144h-50z m323-347l56-60h-143v-46h147l-62-66 28-29 117 115-114 114-29-28z" horiz-adv-x="1000" />

<<<<<<< HEAD
=======
<glyph glyph-name="collection-old" unicode="&#xe803;" d="M876 368l35 199-82 18 15 103-541 128-27-218h-248v-37h0v-663h4v-1h33l1 0 0 0h719v1l3-1 173 435h0l15 36h-100z m-4 171l-33-171-467 0 34 271 466-100z m-540 231l473-113-11-65-417 91-40-315h-55l50 402z m-267-784v575h207l-25-193h-34l-2-3-1 0-9-24-4-9h1l-133-346z m702-52l-687 0 153 398 689 0-155-398z" horiz-adv-x="1000" />

>>>>>>> origin/develop
<glyph glyph-name="document" unicode="&#xe804;" d="M717 613h200l-210 211v-200c0-6 4-11 10-11z m195-57l-254 0c-4 0-7 3-7 6v256c0 4-2 7-6 7l-556 0c-4 0-7-3-7-7v-941c0-4 3-6 7-6l823 1c4 0 7 3 7 6v671c0 4-4 7-7 7z m-49-625c0-3-2-5-4-5l-717 0c-3 0-5 2-5 5v833c0 3 2 5 5 5l450 0c2 0 4-2 4-5v-253c0-6 5-11 11-11h44l208 0c2 0 4-2 4-4v-565z m-146 435h-444c-3 0-4-2-4-4v-47c0-3 1-5 4-5h444c3 0 5 2 5 5v47c0 2-2 4-5 4z m0-137h-444c-3 0-4-2-4-4v-47c0-3 1-4 4-4l444 0c3 0 5 1 5 4v47c0 2-2 4-5 4z m-2-136h-442c-3 0-4-2-4-5v-47c0-2 1-4 4-4h442c2 0 4 2 4 4v47c0 3-2 5-4 5z" horiz-adv-x="1000" />

<glyph glyph-name="domain-diagram" unicode="&#xe805;" d="M641 523h325c4 0 6 2 6 6v230c0 4-2 7-6 7h-325c-4 0-7-3-7-7v-76l-190-1c-4 0-7-3-7-7v-292h-104v187c0 3-3 6-7 6h-302c-4 0-7-3-7-6v-442c0-3 3-6 7-6h302c4 0 7 3 7 6v193h104v-304c0-4 3-7 7-7l191 0v-91c0-4 2-7 6-7h325c4 0 7 3 7 7v230c0 4-3 7-7 7h-325c-4 0-7-3-7-7v-76l-132-1c-2 0-3 2-3 4v245h3l1-1h131v-92c0-4 3-7 7-7h325c4 0 6 3 6 7v230c0 3-2 6-6 6h-325c-4 0-7-3-7-6v-75h-135v234c0 3 2 5 4 5h131v-93c0-4 3-6 7-6z m58 179c0 3 3 6 6 6h197c3 0 6-3 6-6v-115c0-3-3-6-6-6h-197c-3 0-6 2-6 6v115z m-425-517c0-2-2-5-5-5h-188c-2 0-5 3-5 5v327c0 3 3 5 5 5h188c3 0 5-2 5-5v-327z m425-93c0 3 3 6 6 6h197c3 0 6-3 6-6v-116c0-3-3-6-6-6h-197c-3 0-6 3-6 6v116z m0 308c0 3 3 6 6 6h197c3 0 6-2 6-6v-115c0-3-3-6-6-6h-197c-3 0-6 3-6 6v115z" horiz-adv-x="1000" />

<glyph glyph-name="folder-open" unicode="&#xe806;" d="M980 422h-115l0 204c0 3-3 6-6 6l-432 0c-2 0-4 1-5 3l-97 130c-2 4-6 5-10 5h-291c-4 0-7-2-7-6l0-843c0-4 3-7 7-7l475 0 266-1c3 0 6 3 6 6l215 496c1 4-2 7-6 7z m-903 298l210 0c3 0 6-2 7-4l95-127c3-4 9-7 14-7l407-1v-158h-570c-3 0-6-3-6-6l-161-364v662c0 3 2 5 4 5z m655-756h-644l177 408h647l-180-408z" horiz-adv-x="1000" />

<glyph glyph-name="folder" unicode="&#xe807;" d="M971 632l-544 0c-3 0-4 2-6 3l-96 130c-3 4-6 6-11 6h-290c-4 0-7-3-7-7l0-843c0-4 3-7 7-7l946 1c4 0 7 3 7 6l1 705c0 3-3 6-7 6z m-677 84l95-127c3-5 9-7 14-7l520-1v-74l-850 0v208c0 3 2 5 5 5l210 0c2 0 5-2 6-4z m-221-741v476c0 2 2 4 4 4h841c2 0 4-2 4-4v-476c0-3-2-5-4-5l-841 0c-2 0-4 2-4 5z" horiz-adv-x="1000" />

<glyph glyph-name="generic-diagram" unicode="&#xe808;" d="M979 349l-113 129-28-33 55-62h-147v149c0 4-3 7-7 7h-91v90c22 11 38 38 38 68 0 41-27 74-61 74s-61-33-61-74c0-30 16-57 38-68v-90h-214v90c22 11 38 37 38 68 0 41-27 74-61 74s-61-33-61-74c0-30 16-56 38-67v-91h-78c-4 0-7-3-7-7v-149h-157l59 66-28 32-114-128 2-2 0 0 113-129 28 33-64 72h161v-157c0-4 3-6 7-6h78v-108c-22-11-38-37-38-68 0-41 27-73 61-73s61 32 61 73c0 31-16 57-38 68v108h214v-105c-22-11-38-37-38-68 0-41 28-74 61-74s61 33 61 74c0 31-16 57-38 68v105h92c3 0 6 2 6 6v157h158l-67-76 28-32 113 128 0 1 1 1z m-374 353c1 11 8 19 17 21 14 3 27-12 24-29-1-10-8-19-17-21-14-3-27 12-24 29z m-260 0c2 11 9 19 17 21 15 3 27-12 25-29-2-10-9-19-18-21-14-3-26 12-24 29z m41-718c-1-10-8-19-17-20-14-3-27 12-24 29 1 10 8 19 17 21 14 2 27-12 24-30z m260 3c-1-11-8-19-17-21-14-3-27 12-24 29 1 10 7 17 14 20h13c9-3 16-15 14-28z m44 228h-372c-3 0-4 2-4 5v260c0 3 1 5 4 5h367c3 0 5-2 5-5v-265z" horiz-adv-x="1000" />

<glyph glyph-name="glossary" unicode="&#xe809;" d="M941 808c-4-4-4-13-4-18v-90-1l-3-723c0 1 1 6 1 6v-56c0-4-6-9-11-9h-16-208-565c-30 0-62 0-62 41 0 29 26 31 57 31l717-4c9 0 17 8 17 17l1 802c0 10-8 18-18 18h-587-121-10c-59 0-109-39-109-88l-2-773c0-37 24-77 60-89l884-1c10 0 16 7 16 15l2 850v21l-39 51z m-779-46l637-1c4 0 8-4 8-9v-699c0-5-4-9-8-9h-717c-5 0-9 4-9 9l3 622c-3 54 20 87 86 87z m51-346c-13 1-20 2-23 4-5 3-8 8-8 14 0 5 2 11 5 19l10 23h82l12-29c3-8 5-12 5-13 1-2 1-4 1-6 0-4-1-6-3-8-4-3-10-4-19-4h-5v-6h112v6c-7 1-13 3-17 6-5 5-11 16-19 34l-84 191h-3l-84-185c-7-18-14-30-19-35-6-6-12-10-21-11v-6h77v6z m25 153l35-80h-71l36 80z m489-177l9 84h-7c-3-18-10-33-20-44-10-11-22-19-35-23-9-2-23-4-44-4h-44l136 220h-183l-6-68h6c3 11 6 20 11 27 4 8 10 14 17 18 7 4 15 7 23 9 4 1 13 1 26 1h34l-136-220h213z" horiz-adv-x="1000" />

<glyph glyph-name="project" unicode="&#xe80a;" d="M966 688l-460 113c-4 1-7 1-11 0l-464-115c-6-2-10-7-10-13v-542c0-2 1-5 4-6l477-208c3-2 7-2 10 0l460 201c2 1 4 4 4 6l0 552c0 6-4 11-10 12z m-496-696l-388 165c-3 1-5 4-5 8v440c0 4 3 5 5 5l384-126c5-1 8-5 8-10v-480c0-1-2-2-4-2z m35 548l-393 123c-4 1-3 7 1 8l382 95c3 1 5 1 8 0l382-94c4-1 5-7 1-8l-370-124c-4-1-7-1-11 0z m411-385l-363-158c-3-1-6 1-6 4l-1 478c0 3 2 5 5 6l364 119c3 1 5-1 5-4v-439c0-3-1-5-4-6z" horiz-adv-x="1000" />

<glyph glyph-name="storyboard" unicode="&#xe80c;" d="M957 773l-922-2c-10 0-18-8-18-17v-822c0-10 8-17 18-17l922 1c9 0 17 8 17 18v821c0 10-8 18-17 18z m-39-802h-844v744h844v-744z m-772 438h305c5 0 9 4 9 8v186c0 5-4 9-9 9h-305c-5 0-9-4-9-9v-186c0-5 4-8 9-8z m43 145c0 2 2 4 5 4h210c2 0 4-2 4-4v-87c0-3-2-5-4-5h-210c-3 0-5 2-5 5v87z m351-20l312 0c2 0 4 2 4 4l0 48c0 2-2 4-4 4l-312 0c-2 0-4-2-4-4l0-48c0-2 2-4 4-4z m0-125l312 0c2 0 4 2 4 4l0 48c0 2-2 4-4 4l-312 0c-2 0-4-2-4-4l0-48c0-3 2-4 4-4z m2-321h305c4 0 8 4 8 9v186c0 5-4 9-8 9h-305c-5 0-9-4-9-9v-186c0-5 4-9 9-9z m43 146c0 2 2 4 4 4h210c3 0 5-2 5-4v-87c0-3-2-5-5-5h-210c-2 0-4 2-4 5v87z m-444-10l311 0c3 0 5 2 5 5l0 47c0 3-2 5-5 5l-311 0c-3 0-5-2-5-5l0-47c0-3 2-5 5-5z m0-125l311 0c3 0 5 2 5 5l0 47c0 3-2 5-5 5l-311 0c-3 0-5-2-5-5l0-47c0-3 2-5 5-5z" horiz-adv-x="1000" />

<glyph glyph-name="storyteller" unicode="&#xe80d;" d="M449 358c3 2 6 3 8 3 3 0 8-1 12-3 9-3 16-5 22-6 6-2 12-2 18-2 21 0 38 5 51 16 13 11 20 24 20 40 0 12-4 23-13 32-8 9-24 19-48 30-17 7-28 13-33 16-6 4-11 8-14 12-2 3-3 7-3 11 0 7 3 12 9 17 6 5 14 8 24 8 13 0 26-5 37-14 11-10 18-22 21-37h7l-2 61h-5c-1-6-2-9-4-11-1-1-3-2-6-2-3 0-7 1-14 4-7 3-13 5-17 6-7 2-13 3-20 3-18 0-33-6-45-16-12-10-18-22-18-37 0-9 2-16 6-24 5-7 11-13 19-19 8-6 22-13 40-21 14-6 23-10 28-14 5-4 9-7 12-11 3-5 4-9 4-13 0-7-3-14-10-19-7-6-16-8-27-8-15 0-28 5-41 15-13 10-21 25-26 44h-5v-69h5c3 4 5 6 8 8z m-39-120h6c2 15 8 27 16 35 7 6 17 8 30 8h15v-131c0-11-1-17-2-19-1-4-3-6-6-7-4-3-8-4-14-4h-7v-5h107v5h-6c-6 0-11 1-14 3-4 2-6 5-7 7-1 3-2 9-2 20v132h16c9 0 16-1 20-3 6-3 12-8 16-13 4-6 7-15 10-28h6v56h-184v-56z m568 105c-3 38-35 69-73 70-34 1-63-20-74-50h-94v278c0 4-3 7-7 7h-460c-4 0-7-3-7-7v-278h-100c-12 28-41 47-74 46-38-2-69-33-71-70-3-45 32-81 75-81 32 0 60 20 71 49h99v-279c0-3 3-6 7-6h460c4 0 7 3 7 6v279h96c12-26 39-45 69-45 44 0 79 37 76 81z m-885-47c-21 0-38 17-38 38s17 38 38 38 38-17 38-38-17-38-38-38z m599 304l0-236v-58-237c0-3-2-5-5-5l-372 0c-3 0-5 2-5 5v236 59l0 235c0 3 2 5 12 5h372c-5 0-2-2-2-4z m210-301c-21 0-38 17-38 38s17 38 38 38 38-17 38-38-17-38-38-38z" horiz-adv-x="1000" />

<glyph glyph-name="textual" unicode="&#xe80e;" d="M717 613h200l-210 211v-200c0-6 4-11 10-11z m195-57l-254 0c-4 0-7 3-7 6v256c0 4-2 7-6 7l-556 0c-4 0-7-3-7-7v-941c0-4 3-6 7-6l823 1c4 0 7 3 7 6v671c0 4-4 7-7 7z m-49-625c0-3-2-5-4-5l-717 0c-3 0-5 2-5 5v833c0 3 2 5 5 5l450 0c2 0 4-2 4-5v-253c0-6 5-11 11-11h44l208 0c2 0 4-2 4-4v-565z m-146 435h-215c-1 0-2-2-2-4v-47c0-3 1-5 2-5h215c3 0 5 2 5 5v47c0 2-2 4-5 4z m0-137h-215c-1 0-2-2-2-4v-47c0-3 1-4 2-4h215c3 0 5 1 5 4v47c0 2-2 4-5 4z m-2-136h-442c-3 0-4-2-4-5v-47c0-2 1-4 4-4h442c2 0 4 2 4 4v47c0 3-2 5-4 5z m-411 275c6 6 17 9 31 9h16v-167c0-10-1-17-2-20-1-3-3-6-6-7-4-2-9-3-15-3h-8v-6h114v6h-8c-6 0-11 1-14 3-4 2-6 4-7 7-2 3-2 9-2 20v167h16c10 0 17-1 21-3 7-3 13-8 17-14s8-16 11-29h6v58h-194v-58h6c3 16 9 28 18 37z" horiz-adv-x="1000" />

<glyph glyph-name="ui-mockup" unicode="&#xe80f;" d="M968 769h-48v0l-843 0v0h-48c-4 0-8-4-8-8v-838c0-5 4-8 8-8h34v-2l877 0v2h28c4 0 8 3 8 8v838c1 4-3 8-8 8z m-48-795c0-3-2-5-4-5l-835 0c-2 0-4 2-4 5v554c0 2 2 4 4 4l835 0c2 0 4-2 4-4v-554z m0 619c0-3-2-4-4-4l-835 0c-2 0-4 1-4 4v115c0 3 2 5 4 5l835 0c2 0 4-2 4-5v-115z m-457-139h-1v1l-250 0v0h-52c-3 0-5-2-5-5l0-418c0-3 2-4 5-4v-2l300 0v1h3c2 0 4 2 4 4l0 419c0 2-2 4-4 4z m-87-55l-70-109-71 109 141 0z m-164-67l60-94-60-93 0 187z m26-250l67 105 68-105-135 0z m173 45l-72 111 72 112 0-223z m436 291l-292 0c-3 0-5-2-5-5l0-47c0-2 2-4 5-4l292 0c2 0 4 2 4 4l0 47c0 3-2 5-4 5z m0-149l-292 0c-3 0-5-2-5-4l0-47c0-3 2-5 5-5l292 0c2 0 4 2 4 5l0 47c0 2-2 4-4 4z m0-146l-292 0c-3 0-5-2-5-4l0-47c0-3 2-5 5-5l292 0c2 0 4 2 4 5l0 47c0 2-2 4-4 4z" horiz-adv-x="1000" />

<glyph glyph-name="use-case-diagram" unicode="&#xe810;" d="M777 217c-36 0-69-7-97-19l-82 67c-56 46-131 61-199 40l-8-2c-26 27-57 46-91 56 42 23 72 67 77 118 40 64 110 104 185 104l21 0c24-62 102-107 194-107 111 0 201 66 201 148s-90 149-201 149c-103 0-187-56-200-129l-58-4c-61-4-117-34-155-81-24 50-74 85-132 85-81 0-146-67-146-150 0-61 35-114 86-137-89-33-154-131-154-245h16 51 314 46 22c0 52-14 101-37 142 58 3 117-17 161-58l32-30c-30-26-48-59-48-96 0-82 90-148 202-148s201 66 201 148-90 149-201 149z m0 490c72 0 131-38 131-85 0-46-59-84-132-84s-131 38-131 84c0 47 59 85 132 85z m-545-128c46 0 84-39 84-87 0-5-1-9-1-14l-2-3 1 0c-8-39-42-69-82-69-47 0-84 39-84 86s38 87 84 87z m-138-407c22 70 80 121 148 121s126-51 148-121h-296z m682-188c-72 0-131 38-131 84 0 47 59 84 132 84s131-37 131-84c0-46-59-84-132-84z" horiz-adv-x="1000" />

<glyph glyph-name="use-case" unicode="&#xe811;" d="M500 645c-266 0-483-132-483-295s217-295 483-295 483 132 483 295-216 295-483 295z m0-529c-224 0-405 105-405 234s181 234 405 234 405-105 405-234-181-234-405-234z m-147 234c0-22-18-40-40-40-21 0-39 18-39 40 0 21 17 39 39 39 22 0 40-17 40-39z m187 0c0-22-18-40-40-40s-40 18-40 40c0 22 18 40 40 40s40-18 40-40z m189 0c0-22-18-40-40-40-22 0-39 18-39 40 0 22 17 40 39 40 22 0 40-18 40-40z" horiz-adv-x="1000" />

<glyph glyph-name="user-story" unicode="&#xe812;" d="M727 286v47c0 3-2 5-4 5h-444c-3 0-5-2-5-5v-47c0-2 2-4 5-4h444c2 0 4 2 4 4z m244 539h-287c-25 17-56 26-89 25-30-1-57-10-79-25h-492c-4 0-7-3-7-7v-941c0-4 3-6 7-6h947c4 0 7 2 7 6v941c0 4-3 7-7 7z m-293-99c1-35-34-64-78-64-43 0-78 27-79 62 0 16 7 30 19 41 0 1 1 2 2 3 0 0 0 0 0 0 1 1 2 2 3 2 0 0 0 0 0 0 1 1 2 2 3 3 0 0 0 0 0 0 1 1 2 1 3 2 0 0 1 0 1 0 4 3 9 5 14 7 0 0 0 0 0 0 1 1 2 1 3 2 1 0 1 0 1 0 1 0 2 0 3 1 1 0 1 0 1 0 1 0 2 0 3 1 0 0 1 0 2 0 0 0 1 1 2 1 1 0 1 0 2 0 1 0 1 0 2 0 1 0 1 1 2 1 1 0 2 0 2 0 1 0 1 0 2 0 1 0 2 0 3 0 0 0 1 0 1 0 1 0 3 1 4 1 2 0 3 0 5 0 0 0 1 0 1 0 1 0 2 0 3-1 0 0 1 0 1 0 1 0 2 0 3 0 0 0 1 0 2 0 0-1 1-1 2-1 1 0 1 0 2 0 1 0 1 0 2 0 1 0 1-1 2-1 1 0 2 0 3 0 0 0 0-1 1-1 2 0 5-1 8-2 0 0 0 0 0 0 1-1 2-1 3-2 0 0 1 0 1 0 1 0 2-1 3-1 0 0 0 0 1-1 0 0 2 0 2-1 1 0 1 0 1-1 1 0 2-1 3-1 0 0 0-1 0-1 1 0 2-1 3-1 0 0 0 0 1 0 3-3 6-5 8-8l0 0c11-11 18-25 18-40z m-204-63c8-16 21-31 37-42l-67-19 30 61z m444-728c0-3-2-5-4-5h-831c-2 0-4 2-4 5v826c0 2 2 4 4 4h384c-1-3-2-6-3-9l-126-252 283 91c69 10 121 66 119 132-1 13-4 26-8 38h182c2 0 4-1 4-4v-826z m-186 210h-445c-2 0-4-2-4-4v-47c0-2 2-4 4-4h445c2 0 4 2 4 4v47c0 2-2 4-4 4z" horiz-adv-x="1000" />

<glyph glyph-name="subartifact" unicode="&#xe822;" d="M923 271h37c7 0 13 4 13 11v112c0 7-6 12-13 12h-112c-7 0-14-5-14-12v-43h-254v43c0 7-6 12-13 12h-112c-7 0-12-5-12-12v-112c0-7 5-11 12-11h38v-263h-38c-7 0-12-7-12-13v-113c0-7 5-13 12-13h112c7 0 13 6 13 13v41h254v-39c0-6 7-13 14-13h112c7 0 13 7 13 13v113c0 7-6 11-13 11h-37v263z m-380 44c0-5-4-9-9-9h-45c-5 0-9 4-9 9v45c0 5 4 9 9 9h45c5 0 9-4 9-9v-45z m395 0c0-5-4-9-9-9h-45c-5 0-9 4-9 9v45c0 5 4 9 9 9h45c5 0 9-4 9-9v-45z m-358-327v7c0 6-6 13-13 13h-9v263h9c7 0 13 4 13 11v8h254v-8c0-7 7-11 14-11h12v-263h-12c-7 0-14-4-14-11v-9h-254z m358-76c0-5-4-9-9-9h-45c-5 0-9 4-9 9v46c0 5 4 8 9 8h45c5 0 9-3 9-8v-46z m-395-2c0-5-4-9-9-9h-45c-5 0-9 4-9 9v45c0 5 4 9 9 9h45c5 0 9-4 9-9v-45z m-524 917v-741h439v78h-357v418h696v-138-45h17v44h66v384h-861z m611-82v-89h-359v89h359z m-529 0h96v-89h-96v89z m603-89v89h93v-89h-93z" horiz-adv-x="1000" />

<<<<<<< HEAD
<glyph glyph-name="collection" unicode="&#xe856;" d="M897 812h-618v-80h-75v-96c-19 0-81 0-81 0v-748h618v96h81v80h75v748z m-190-882h-550v664h47 34 469v-568-42-54z m81 96h-47v610c0 0-351 0-503 0v54h41 34 475v-584-42-38z m75 80h-41v626h-509v38h550v-664z" horiz-adv-x="1000" />

<glyph glyph-name="collections" unicode="&#xe85d;" d="M898 550l2 294-621 0v-79l-78 0 1-93-80 0v-244l-107-83 3-496 785-1 179 201 2 500-86 1z m-584 253l551 0v-381l-40-45 4 388-515 0v38z m-71-79l544 0-4-380h-43v328l-497 0v52z m455-96v-284l-537 0v284l537 0z m-576-252v-32h-42l42 32z m627-475l-679 0v391l679 0v-391z m200 162l-145-162-3 393 148 170v-401z m-52 397l1 62 54 0-55-62z" horiz-adv-x="1000" />
=======
<glyph glyph-name="collection" unicode="&#xe85d;" d="M898 550l2 294-621 0v-79l-78 0 1-93-80 0v-244l-107-83 3-496 785-1 179 201 2 500-86 1z m-584 253l551 0v-381l-40-45 4 388-515 0v38z m-71-79l544 0-4-380h-43v328l-497 0v52z m455-96v-284l-537 0v284l537 0z m-576-252v-32h-42l42 32z m627-475l-679 0v391l679 0v-391z m200 162l-145-162-3 393 148 170v-401z m-52 397l1 62 54 0-55-62z" horiz-adv-x="1000" />
>>>>>>> origin/develop
</font>
</defs>
</svg>
